<?xml version="1.0" standalone="no"?>
<!DOCTYPE svg PUBLIC "-//W3C//DTD SVG 20010904//EN"
 "http://www.w3.org/TR/2001/REC-SVG-20010904/DTD/svg10.dtd">
<svg version="1.0" xmlns="http://www.w3.org/2000/svg"
 width="538.000000pt" height="626.000000pt" viewBox="0 0 538.000000 626.000000"
 preserveAspectRatio="xMidYMid meet">
<metadata>
Created by potrace 1.16, written by Peter Selinger 2001-2019
</metadata>
<g transform="translate(0.000000,626.000000) scale(0.100000,-0.100000)"
fill="#000000" stroke="none">
<path d="M944 5963 c4 -10 4 -14 0 -11 -10 10 -44 -10 -44 -26 0 -20 24 -36
46 -30 16 4 19 12 16 45 -2 21 -9 39 -14 39 -6 0 -7 -8 -4 -17z m6 -38 c0 -8
-7 -15 -15 -15 -8 0 -15 7 -15 15 0 8 7 15 15 15 8 0 15 -7 15 -15z"/>
<path d="M2304 5963 c4 -10 4 -14 0 -11 -10 10 -44 -10 -44 -26 0 -20 24 -36
46 -30 16 4 19 12 16 45 -2 21 -9 39 -14 39 -6 0 -7 -8 -4 -17z m6 -38 c0 -8
-7 -15 -15 -15 -8 0 -15 7 -15 15 0 8 7 15 15 15 8 0 15 -7 15 -15z"/>
<path d="M2780 5970 c0 -5 5 -10 10 -10 15 0 12 -47 -2 -53 -7 -3 1 -5 17 -5
17 0 24 2 18 5 -7 2 -13 20 -13 39 0 24 -5 34 -15 34 -8 0 -15 -4 -15 -10z"/>
<path d="M3145 5969 c-4 -5 0 -9 7 -9 9 0 9 -3 -2 -10 -12 -8 -10 -10 10 -10
20 -1 17 -4 -15 -15 -52 -19 -65 -19 -65 1 0 12 6 15 25 10 14 -4 25 -2 25 3
0 13 -27 21 -45 15 -17 -7 -21 -54 -4 -54 5 0 7 -4 4 -10 -10 -16 15 -12 32 5
10 11 19 13 27 6 7 -6 21 -8 33 -5 15 4 19 11 15 27 -3 12 -10 25 -16 29 -8 5
-7 8 2 8 6 0 12 4 12 8 0 11 -39 12 -45 1z"/>
<path d="M3707 5945 c4 -23 2 -35 -6 -35 -6 0 -11 9 -11 20 0 11 -4 20 -9 20
-5 0 -7 -9 -4 -20 4 -14 0 -20 -11 -20 -9 0 -16 8 -16 20 0 11 -4 20 -9 20 -5
0 -6 -12 -2 -27 7 -25 11 -27 61 -27 38 0 56 5 64 16 12 20 -10 52 -31 44 -7
-3 -13 1 -13 9 0 8 -4 15 -9 15 -6 0 -7 -16 -4 -35z m48 -14 c7 -12 -12 -24
-25 -16 -11 7 -4 25 10 25 5 0 11 -4 15 -9z"/>
<path d="M3790 5970 c0 -5 5 -10 10 -10 15 0 12 -47 -2 -53 -7 -3 1 -5 17 -5
17 0 24 2 18 5 -7 2 -13 20 -13 39 0 24 -5 34 -15 34 -8 0 -15 -4 -15 -10z"/>
<path d="M4155 5969 c-4 -5 0 -9 7 -9 9 0 9 -3 -2 -10 -12 -8 -10 -10 10 -11
23 -1 21 -2 -19 -15 -24 -8 10 -34 35 -28 16 4 20 11 16 27 -3 12 -10 25 -16
29 -8 5 -7 8 2 8 6 0 12 4 12 8 0 11 -39 12 -45 1z"/>
<path d="M4390 5959 c-11 -20 -5 -79 8 -79 4 0 7 23 7 50 0 28 -1 50 -2 50 -1
0 -7 -9 -13 -21z"/>
<path d="M4650 5974 c0 -3 5 -14 10 -24 7 -12 7 -28 0 -44 -6 -17 -6 -26 0
-26 14 0 23 45 16 75 -5 21 -26 37 -26 19z"/>
<path d="M755 5935 c0 -31 3 -35 26 -35 29 0 43 21 34 51 -4 12 -16 19 -33 19
-24 0 -27 -4 -27 -35z m43 -3 c2 -15 -2 -22 -12 -22 -11 0 -16 9 -16 26 0 31
23 28 28 -4z"/>
<path d="M1198 5963 c6 -2 12 -15 12 -28 0 -13 -6 -26 -12 -28 -7 -3 1 -5 17
-5 17 0 24 2 18 5 -7 2 -13 15 -13 28 0 13 6 26 13 28 6 3 -1 5 -18 5 -16 0
-24 -2 -17 -5z"/>
<path d="M1338 5958 c-13 -38 22 -82 46 -58 7 7 5 10 -7 10 -22 0 -22 27 1 33
16 4 16 5 0 6 -10 0 -18 6 -18 11 0 14 -18 12 -22 -2z"/>
<path d="M2485 5951 c-12 -39 20 -70 54 -51 11 5 22 5 27 0 5 -5 19 -7 30 -4
16 4 20 12 16 29 -5 27 -23 37 -43 24 -10 -6 -8 -9 11 -10 18 0 13 -4 -20 -15
-58 -18 -60 -18 -60 5 0 23 22 40 28 23 5 -17 22 -15 22 3 0 23 -57 20 -65 -4z"/>
<path d="M2628 5958 c-13 -38 22 -82 46 -58 7 7 5 10 -7 10 -22 0 -22 27 1 33
16 4 16 5 0 6 -10 0 -18 6 -18 11 0 14 -18 12 -22 -2z"/>
<path d="M3565 5935 c0 -28 4 -35 20 -35 15 0 17 3 7 9 -10 6 -9 10 7 14 13 3
21 13 21 26 0 16 -6 21 -27 21 -25 0 -28 -3 -28 -35z m45 15 c0 -5 -7 -10 -15
-10 -8 0 -15 5 -15 10 0 6 7 10 15 10 8 0 15 -4 15 -10z"/>
<path d="M4425 5951 c-11 -36 17 -67 50 -55 25 10 17 25 -10 18 -21 -5 -25 -3
-25 14 0 23 22 42 28 24 5 -17 22 -15 22 3 0 23 -57 20 -65 -4z"/>
<path d="M4518 5963 c6 -2 12 -15 12 -28 0 -13 -6 -26 -12 -28 -7 -3 1 -5 17
-5 17 0 24 2 18 5 -7 2 -13 15 -13 28 0 13 6 26 13 28 6 3 -1 5 -18 5 -16 0
-24 -2 -17 -5z"/>
<path d="M4575 5935 c0 -28 4 -35 20 -35 15 0 17 3 7 9 -10 6 -9 10 7 14 13 3
21 13 21 26 0 16 -6 21 -27 21 -25 0 -28 -3 -28 -35z m45 15 c0 -5 -7 -10 -15
-10 -8 0 -15 5 -15 10 0 6 7 10 15 10 8 0 15 -4 15 -10z"/>
<path d="M839 5949 c-10 -6 -8 -9 11 -10 23 -1 21 -2 -19 -15 -24 -8 10 -34
35 -28 16 4 20 11 16 29 -5 27 -23 37 -43 24z"/>
<path d="M986 5945 c-27 -28 10 -69 40 -44 20 16 17 37 -5 49 -15 7 -23 6 -35
-5z m34 -20 c0 -8 -7 -15 -15 -15 -8 0 -15 7 -15 15 0 8 7 15 15 15 8 0 15 -7
15 -15z"/>
<path d="M1064 5952 c-16 -11 -14 -50 3 -56 21 -9 33 2 33 29 0 24 -20 38 -36
27z m23 -38 c-3 -3 -12 -4 -19 -1 -8 3 -5 6 6 6 11 1 17 -2 13 -5z"/>
<path d="M1280 5952 c-18 -8 -22 -52 -4 -52 6 0 11 7 10 16 0 9 5 19 13 22 10
3 12 -1 8 -17 -3 -13 0 -21 8 -21 10 0 11 8 6 27 -8 29 -18 35 -41 25z"/>
<path d="M1417 5949 c-36 -21 0 -68 40 -52 15 6 13 9 -12 14 l-30 7 28 1 c31
1 36 16 9 30 -11 6 -24 6 -35 0z m30 -15 c-3 -3 -12 -4 -19 -1 -8 3 -5 6 6 6
11 1 17 -2 13 -5z"/>
<path d="M1530 5951 c-38 -5 -45 -10 -46 -28 0 -19 5 -23 25 -22 18 1 20 3 8
6 -24 6 -16 27 13 31 19 3 22 0 17 -17 -3 -13 0 -21 8 -21 7 0 12 7 11 16 0 9
5 19 13 22 10 3 12 -1 8 -17 -3 -13 0 -21 8 -21 10 0 11 8 6 27 -8 31 -11 32
-71 24z"/>
<path d="M1639 5949 c-10 -6 -8 -9 11 -10 23 -1 21 -2 -19 -15 -24 -8 10 -34
35 -28 16 4 20 11 16 29 -5 27 -23 37 -43 24z"/>
<path d="M1713 5953 c-18 -7 -16 -50 2 -57 17 -6 45 2 45 14 0 4 -11 5 -25 2
-19 -3 -25 0 -25 13 0 13 6 16 25 11 27 -7 35 8 9 18 -9 3 -16 6 -17 5 -1 0
-8 -3 -14 -6z"/>
<path d="M1846 5945 c-27 -28 10 -69 40 -44 20 16 17 37 -5 49 -15 7 -23 6
-35 -5z m34 -20 c0 -8 -7 -15 -15 -15 -8 0 -15 7 -15 15 0 8 7 15 15 15 8 0
15 -7 15 -15z"/>
<path d="M1920 5952 c-18 -8 -22 -52 -4 -52 6 0 11 7 10 16 0 9 5 19 13 22 10
3 12 -1 8 -17 -3 -13 0 -21 8 -21 10 0 11 8 6 27 -8 29 -18 35 -41 25z"/>
<path d="M1999 5949 c-10 -6 -8 -9 11 -10 23 -1 21 -2 -19 -15 -24 -8 10 -34
35 -28 16 4 20 11 16 29 -5 27 -23 37 -43 24z"/>
<path d="M2144 5952 c-16 -11 -14 -50 3 -56 21 -9 33 2 33 29 0 24 -20 38 -36
27z m23 -38 c-3 -3 -12 -4 -19 -1 -8 3 -5 6 6 6 11 1 17 -2 13 -5z"/>
<path d="M2357 5949 c-36 -21 0 -68 40 -52 15 6 13 9 -12 14 l-30 7 28 1 c31
1 36 16 9 30 -11 6 -24 6 -35 0z m30 -15 c-3 -3 -12 -4 -19 -1 -8 3 -5 6 6 6
11 1 17 -2 13 -5z"/>
<path d="M2719 5949 c-10 -6 -8 -9 11 -10 23 -1 21 -2 -19 -15 -24 -8 10 -34
35 -28 16 4 20 11 16 29 -5 27 -23 37 -43 24z"/>
<path d="M2856 5945 c-26 -27 10 -69 38 -46 8 7 23 7 42 2 16 -5 21 -10 12
-10 -10 -1 -18 -6 -18 -12 0 -6 8 -9 17 -7 12 2 20 16 24 40 5 31 3 37 -15 42
-11 3 -26 1 -32 -5 -9 -7 -19 -7 -33 0 -15 8 -23 7 -35 -4z m34 -20 c0 -8 -7
-15 -15 -15 -8 0 -15 7 -15 15 0 8 7 15 15 15 8 0 15 -7 15 -15z m62 0 c0 -5
-5 -11 -11 -13 -6 -2 -11 4 -11 13 0 9 5 15 11 13 6 -2 11 -8 11 -13z"/>
<path d="M2999 5949 c-10 -6 -8 -9 11 -10 23 -1 21 -2 -19 -15 -24 -8 10 -34
35 -28 16 4 20 11 16 29 -5 27 -23 37 -43 24z"/>
<path d="M3216 5945 c-27 -28 10 -69 40 -44 20 16 17 37 -5 49 -15 7 -23 6
-35 -5z m34 -20 c0 -8 -7 -15 -15 -15 -8 0 -15 7 -15 15 0 8 7 15 15 15 8 0
15 -7 15 -15z"/>
<path d="M3360 5952 c-18 -8 -22 -52 -4 -52 6 0 11 7 10 16 0 9 5 19 13 22 10
3 12 -1 8 -17 -3 -13 0 -21 8 -21 10 0 11 8 6 27 -8 29 -18 35 -41 25z"/>
<path d="M3439 5949 c-10 -6 -8 -9 11 -10 23 -1 21 -2 -19 -15 -24 -8 10 -34
35 -28 16 4 20 11 16 29 -5 27 -23 37 -43 24z"/>
<path d="M3943 5953 c-18 -7 -16 -50 3 -57 8 -3 23 -2 33 4 11 5 22 5 27 0 5
-5 19 -7 30 -4 16 4 20 12 16 29 -5 27 -23 37 -43 24 -10 -6 -8 -9 11 -9 20
-1 17 -4 -15 -15 -52 -19 -65 -19 -65 1 0 12 6 15 25 10 27 -7 35 8 9 18 -9 3
-16 6 -17 5 -1 0 -8 -3 -14 -6z"/>
<path d="M4083 5953 c-16 -6 -17 -53 -2 -53 5 0 7 -4 4 -10 -9 -15 15 -12 31
4 20 20 18 24 -11 18 -19 -3 -25 0 -25 13 0 13 6 16 25 11 27 -7 35 8 9 18 -9
3 -16 6 -17 5 -1 0 -8 -3 -14 -6z"/>
<path d="M4226 5945 c-27 -28 10 -69 40 -44 20 16 17 37 -5 49 -15 7 -23 6
-35 -5z m34 -20 c0 -8 -7 -15 -15 -15 -8 0 -15 7 -15 15 0 8 7 15 15 15 8 0
15 -7 15 -15z"/>
<path d="M1778 5943 c6 -2 12 -11 12 -18 0 -7 -6 -16 -12 -18 -7 -3 1 -5 17
-5 17 0 24 2 18 5 -7 2 -13 13 -13 24 0 12 -7 19 -17 18 -11 0 -13 -3 -5 -6z"/>
<path d="M2068 5943 c6 -2 12 -11 12 -18 0 -7 -6 -16 -12 -18 -7 -3 1 -5 17
-5 17 0 24 2 18 5 -7 2 -13 13 -13 24 0 12 -7 19 -17 18 -11 0 -13 -3 -5 -6z"/>
<path d="M3868 5943 c6 -2 12 -11 12 -18 0 -7 -6 -16 -12 -18 -7 -3 1 -5 17
-5 17 0 24 2 18 5 -7 2 -13 13 -13 24 0 12 -7 19 -17 18 -11 0 -13 -3 -5 -6z"/>
<path d="M1024 5735 c-7 -28 2 -75 14 -75 5 0 8 23 8 50 0 53 -11 66 -22 25z"/>
<path d="M1658 5749 c-10 -5 -18 -21 -18 -34 0 -13 8 -28 18 -33 17 -9 109 -8
118 0 2 3 0 17 -5 32 -12 31 -46 35 -54 6 -6 -24 -57 -29 -57 -6 0 19 17 29
25 16 9 -15 25 -12 25 4 0 8 -7 17 -16 20 -19 7 -15 8 -36 -5z"/>
<path d="M1930 5750 c0 -5 5 -10 10 -10 16 0 12 -37 -5 -44 -11 -4 -19 3 -25
19 -11 29 -45 34 -53 7 -5 -23 -47 -37 -47 -16 0 8 7 14 15 14 8 0 15 4 15 9
0 10 -40 22 -52 15 -10 -6 1 -56 14 -65 11 -7 181 0 188 8 3 3 -1 8 -7 10 -7
3 -13 18 -13 34 0 22 -5 29 -20 29 -11 0 -20 -4 -20 -10z"/>
<path d="M2290 5735 c0 -25 -32 -51 -50 -40 -17 10 0 26 21 20 13 -4 19 -2 19
9 0 23 -46 20 -63 -4 l-14 -21 -6 21 c-6 25 -44 27 -50 3 -4 -16 -5 -16 -6 -1
-1 14 -11 16 -58 14 -63 -2 -83 -10 -83 -31 0 -22 38 -39 55 -25 18 15 36 4
28 -15 -7 -20 31 -20 47 0 7 9 19 14 27 11 7 -3 23 -2 36 3 28 10 47 4 40 -15
-3 -8 1 -14 11 -14 9 0 16 7 16 16 0 11 8 15 28 13 55 -4 64 -1 56 24 -4 12
-7 30 -6 40 0 12 -7 17 -24 17 -19 0 -24 -5 -24 -25z m-246 -36 c-3 -5 -10 -7
-15 -3 -5 3 -7 10 -3 15 3 5 10 7 15 3 5 -3 7 -10 3 -15z m66 11 c0 -5 -5 -10
-11 -10 -5 0 -7 5 -4 10 3 6 8 10 11 10 2 0 4 -4 4 -10z"/>
<path d="M2962 5745 c-15 -17 -32 -20 -32 -5 0 6 -15 10 -33 10 -31 0 -33 -2
-33 -36 0 -34 1 -35 36 -33 19 2 40 1 45 -2 16 -8 125 2 125 12 0 5 -4 9 -9 9
-5 0 -11 14 -14 30 -4 17 -11 30 -16 30 -15 0 -22 -33 -9 -42 10 -6 10 -10 -2
-18 -12 -8 -16 -3 -18 25 -3 37 -18 44 -40 20z m12 -46 c-3 -5 -10 -7 -15 -3
-5 3 -7 10 -3 15 3 5 10 7 15 3 5 -3 7 -10 3 -15z"/>
<path d="M3306 5743 c-4 -9 -1 -20 6 -24 10 -6 8 -12 -7 -23 -19 -14 -17 -15
30 -17 54 -2 87 -1 92 5 2 2 -1 15 -6 30 -12 31 -46 35 -54 6 -8 -30 -24 -24
-30 10 -7 33 -21 39 -31 13z"/>
<path d="M3450 5750 c0 -5 5 -10 10 -10 16 0 11 -32 -7 -46 -16 -12 -14 -13
20 -14 20 0 37 5 37 10 0 6 -4 10 -10 10 -5 0 -10 14 -10 30 0 23 -4 30 -20
30 -11 0 -20 -4 -20 -10z"/>
<path d="M3725 5752 c-16 -2 -33 -9 -37 -15 -6 -9 -8 -9 -8 1 0 6 -6 12 -14
12 -8 0 -15 -14 -18 -34 l-4 -34 48 0 c26 -1 52 -3 57 -6 22 -14 40 6 38 41
-2 38 -8 42 -62 35z m2 -34 c-3 -8 -6 -5 -6 6 -1 11 2 17 5 13 3 -3 4 -12 1
-19z"/>
<path d="M4246 5743 c-4 -9 -1 -20 6 -25 10 -6 10 -10 -2 -18 -12 -8 -17 -4
-25 15 -14 38 -50 30 -50 -10 l0 -30 95 4 c91 3 119 9 93 18 -7 3 -13 18 -13
34 0 22 -5 29 -20 29 -11 0 -20 -4 -20 -10 0 -5 5 -10 10 -10 15 0 12 -37 -3
-43 -20 -7 -33 4 -41 36 -7 30 -21 35 -30 10z"/>
<path d="M4385 5710 c0 -29 4 -49 10 -47 6 2 10 23 10 47 0 24 -4 45 -10 47
-6 2 -10 -18 -10 -47z"/>
<path d="M1064 5714 l0 -34 103 0 103 0 0 34 0 34 -103 0 -103 1 0 -35z m73
-6 c-3 -8 -6 -5 -6 6 -1 11 2 17 5 13 3 -3 4 -12 1 -19z m73 7 c0 -9 -6 -12
-16 -8 -13 5 -13 7 -2 14 17 11 18 11 18 -6z"/>
<path d="M1290 5740 c0 -5 5 -10 10 -10 6 0 10 -7 10 -15 0 -8 -4 -15 -10 -15
-5 0 -10 -4 -10 -10 0 -5 14 -10 31 -10 27 0 30 2 19 15 -7 8 -9 23 -6 32 6
14 9 15 15 4 5 -7 14 -10 20 -7 6 4 11 0 11 -8 0 -9 -4 -16 -10 -16 -5 0 -10
-4 -10 -10 0 -5 12 -10 26 -10 20 0 24 4 19 19 -4 12 0 21 11 25 13 5 15 2 10
-19 -6 -23 -4 -25 29 -25 35 0 50 22 23 33 -10 4 -10 6 0 6 6 1 12 8 12 16 0
12 -18 15 -100 15 -60 0 -100 -4 -100 -10z"/>
<path d="M1502 5715 c0 -32 3 -35 29 -35 20 0 29 5 29 16 0 11 -5 14 -17 9
-15 -5 -16 -4 -5 6 19 21 14 39 -12 39 -21 0 -24 -5 -24 -35z"/>
<path d="M2507 5730 c3 -11 0 -27 -7 -35 -10 -13 -9 -15 9 -15 11 0 21 6 21
13 0 8 3 9 8 1 10 -15 74 -26 90 -15 9 5 11 17 6 34 -8 34 -41 36 -53 5 -9
-23 -9 -23 -21 5 -16 33 -61 40 -53 7z"/>
<path d="M3087 5743 c-9 -15 5 -62 20 -67 8 -3 22 -2 31 3 10 6 23 6 34 0 10
-6 24 -7 31 -2 6 4 26 6 44 4 19 -1 33 2 33 8 0 6 -5 11 -11 11 -5 0 -7 5 -4
10 4 6 11 8 16 5 5 -4 9 1 9 9 0 11 -10 16 -31 16 -25 0 -29 -3 -24 -19 3 -11
1 -22 -5 -26 -5 -3 -10 2 -10 14 0 29 -40 39 -59 14 -22 -26 -51 -37 -51 -18
0 8 7 15 15 15 8 0 15 5 15 10 0 6 -4 10 -9 10 -5 0 -16 3 -24 6 -8 3 -17 2
-20 -3z m107 -44 c-3 -5 -10 -7 -15 -3 -5 3 -7 10 -3 15 3 5 10 7 15 3 5 -3 7
-10 3 -15z"/>
<path d="M3944 5715 l0 -35 63 0 c35 0 63 4 63 10 0 6 -5 10 -11 10 -5 0 -7 5
-4 10 4 6 11 8 16 5 5 -4 9 1 9 9 0 11 -10 16 -31 16 -24 0 -30 -3 -25 -16 3
-9 3 -21 -1 -27 -5 -7 -10 0 -13 18 -4 25 -10 31 -36 33 -28 3 -30 1 -30 -33z"/>
<path d="M2372 5728 c-18 -18 -15 -36 9 -48 24 -13 49 2 49 30 0 27 -37 39
-58 18z m32 -29 c-3 -5 -10 -7 -15 -3 -5 3 -7 10 -3 15 3 5 10 7 15 3 5 -3 7
-10 3 -15z"/>
<path d="M2654 5726 c-15 -38 13 -67 44 -48 20 13 4 62 -19 62 -11 0 -22 -6
-25 -14z"/>
<path d="M4086 5713 c-8 -30 8 -46 39 -37 27 9 27 8 16 38 -14 35 -47 35 -55
-1z"/>
<path d="M2745 5691 c-6 -11 9 -23 19 -14 9 9 7 23 -3 23 -6 0 -12 -4 -16 -9z"/>
<path d="M3527 5679 c-3 -13 -1 -19 6 -16 15 5 22 37 9 37 -5 0 -12 -9 -15
-21z"/>
<path d="M3817 5679 c-3 -13 -1 -19 6 -16 15 5 22 37 9 37 -5 0 -12 -9 -15
-21z"/>
<path d="M520 3495 l0 -2145 2200 0 2200 0 0 2145 0 2145 -2200 0 -2200 0 0
-2145z m4390 5 l0 -2130 -2185 0 -2185 0 0 2130 0 2130 2185 0 2185 0 0 -2130z"/>
<path d="M627 5553 c-3 -5 5 -8 18 -8 13 0 21 3 18 8 -2 4 -10 7 -18 7 -8 0
-16 -3 -18 -7z"/>
<path d="M720 5540 c0 -12 -7 -20 -17 -21 -14 0 -15 -2 -3 -6 8 -3 18 -11 22
-17 4 -6 8 6 8 27 0 20 -2 37 -5 37 -3 0 -5 -9 -5 -20z"/>
<path d="M797 5535 c-4 -8 -3 -16 1 -19 4 -3 9 4 9 15 2 23 -3 25 -10 4z"/>
<path d="M626 5495 c4 -8 11 -15 16 -15 6 0 5 6 -2 15 -7 8 -14 15 -16 15 -2
0 -1 -7 2 -15z"/>
<path d="M635 5305 c0 -19 5 -35 10 -35 7 0 9 15 7 35 -2 19 -7 35 -11 35 -3
0 -6 -16 -6 -35z"/>
<path d="M869 5333 c-5 -45 -3 -63 6 -63 7 0 9 14 7 35 -4 32 -11 47 -13 28z"/>
<path d="M1127 5333 c-3 -5 5 -8 18 -8 13 0 21 3 18 8 -2 4 -10 7 -18 7 -8 0
-16 -3 -18 -7z"/>
<path d="M1359 5308 c-4 -33 -2 -38 16 -38 12 0 16 3 8 8 -6 4 -13 21 -15 37
-3 29 -4 29 -9 -7z"/>
<path d="M2099 5333 c-5 -45 -3 -63 6 -63 7 0 9 14 7 35 -4 32 -11 47 -13 28z"/>
<path d="M2710 5307 c0 -20 4 -37 8 -37 9 0 7 58 -2 67 -3 4 -6 -10 -6 -30z"/>
<path d="M3469 5333 c-5 -45 -3 -63 6 -63 7 0 9 14 7 35 -4 32 -11 47 -13 28z"/>
<path d="M3646 5331 c-4 -5 3 -7 14 -4 23 6 26 13 6 13 -8 0 -17 -4 -20 -9z"/>
<path d="M3729 5308 c-4 -33 -2 -38 16 -38 12 0 16 3 8 8 -6 4 -13 21 -15 37
-3 29 -4 29 -9 -7z"/>
<path d="M4469 5333 c-5 -45 -3 -63 6 -63 7 0 9 14 7 35 -4 32 -11 47 -13 28z"/>
<path d="M763 5304 c-3 -8 0 -21 7 -27 10 -9 11 -9 6 0 -4 7 3 13 16 16 l23 4
-23 2 c-13 0 -20 6 -17 11 3 6 4 10 0 10 -3 0 -8 -7 -12 -16z"/>
<path d="M1190 5301 c0 -11 4 -22 9 -25 4 -3 6 6 3 19 -5 30 -12 33 -12 6z"/>
<path d="M1225 5295 c0 -14 3 -25 8 -25 4 0 7 11 7 25 0 14 -3 25 -7 25 -5 0
-8 -11 -8 -25z"/>
<path d="M1273 5304 c-3 -8 0 -21 7 -27 10 -9 11 -9 6 0 -4 7 3 13 16 16 l23
4 -23 2 c-13 0 -20 6 -17 11 3 6 4 10 0 10 -3 0 -8 -7 -12 -16z"/>
<path d="M1413 5304 c-3 -8 0 -21 7 -27 10 -9 11 -9 6 0 -4 7 3 13 16 16 l23
4 -23 2 c-13 0 -20 6 -17 11 3 6 4 10 0 10 -3 0 -8 -7 -12 -16z"/>
<path d="M1664 5312 c5 -8 -1 -12 -16 -13 -20 -1 -21 -2 -3 -6 11 -3 23 -10
27 -17 5 -6 8 -2 8 11 0 12 -5 25 -12 29 -7 4 -8 3 -4 -4z"/>
<path d="M1923 5313 c9 -2 15 -9 12 -14 -10 -15 1 -10 15 6 11 13 8 15 -16 14
-17 -1 -22 -3 -11 -6z"/>
<path d="M2164 5312 c5 -8 -1 -12 -16 -13 -20 -1 -21 -2 -3 -6 11 -3 23 -10
27 -17 5 -6 8 -2 8 11 0 12 -5 25 -12 29 -7 4 -8 3 -4 -4z"/>
<path d="M2273 5304 c-3 -8 -2 -19 3 -24 5 -5 9 1 9 16 0 28 -3 30 -12 8z"/>
<path d="M2428 5298 c-4 -24 -2 -28 16 -28 13 0 16 3 10 8 -7 4 -14 16 -16 27
-3 17 -5 15 -10 -7z"/>
<path d="M2795 5295 c0 -19 5 -25 20 -24 11 0 14 3 8 6 -7 2 -13 13 -13 24 0
10 -3 19 -7 19 -5 0 -8 -11 -8 -25z"/>
<path d="M2955 5286 c0 -19 3 -32 8 -29 4 2 7 17 7 34 0 16 -3 29 -7 29 -5 0
-8 -15 -8 -34z"/>
<path d="M2998 5298 c-4 -24 -2 -28 16 -28 13 0 16 3 10 8 -7 4 -14 16 -16 27
-3 17 -5 15 -10 -7z"/>
<path d="M3104 5312 c5 -8 -1 -12 -16 -13 -20 -1 -21 -2 -3 -6 11 -3 23 -10
27 -17 5 -6 8 -2 8 11 0 12 -5 25 -12 29 -7 4 -8 3 -4 -4z"/>
<path d="M3158 5313 c7 -3 16 -2 19 1 4 3 -2 6 -13 5 -11 0 -14 -3 -6 -6z"/>
<path d="M3225 5295 c0 -19 5 -25 20 -24 11 0 14 3 8 6 -7 2 -13 13 -13 24 0
10 -3 19 -7 19 -5 0 -8 -11 -8 -25z"/>
<path d="M3314 5312 c5 -8 -1 -12 -16 -13 -20 -1 -21 -2 -3 -6 11 -3 23 -10
27 -17 5 -6 8 -2 8 11 0 12 -5 25 -12 29 -7 4 -8 3 -4 -4z"/>
<path d="M3503 5304 c-3 -8 0 -21 7 -27 10 -9 11 -9 6 0 -4 7 3 13 16 16 l23
4 -23 2 c-13 0 -20 6 -17 11 3 6 4 10 0 10 -3 0 -8 -7 -12 -16z"/>
<path d="M3793 5304 c-3 -8 0 -21 7 -27 10 -9 11 -9 6 0 -4 7 3 13 16 16 l23
4 -23 2 c-13 0 -20 6 -17 11 3 6 4 10 0 10 -3 0 -8 -7 -12 -16z"/>
<path d="M3892 5314 c9 -3 19 -15 22 -27 4 -18 4 -18 3 3 -1 17 -8 25 -22 27
-14 1 -15 0 -3 -3z"/>
<path d="M3933 5304 c-3 -8 0 -21 7 -27 10 -9 11 -9 6 0 -4 7 3 13 16 16 l23
4 -23 2 c-13 0 -20 6 -17 11 3 6 4 10 0 10 -3 0 -8 -7 -12 -16z"/>
<path d="M4002 5295 c0 -16 2 -22 5 -12 2 9 2 23 0 30 -3 6 -5 -1 -5 -18z"/>
<path d="M4038 5293 c5 -21 7 -23 10 -9 2 10 0 22 -6 28 -6 6 -7 0 -4 -19z"/>
<path d="M4078 5313 c6 -2 18 -2 25 0 6 3 1 5 -13 5 -14 0 -19 -2 -12 -5z"/>
<path d="M4165 5295 c0 -19 5 -25 20 -24 11 0 14 3 8 6 -7 2 -13 13 -13 24 0
10 -3 19 -7 19 -5 0 -8 -11 -8 -25z"/>
<path d="M4222 5295 c0 -16 2 -22 5 -12 2 9 2 23 0 30 -3 6 -5 -1 -5 -18z"/>
<path d="M4258 5293 c5 -21 7 -23 10 -9 2 10 0 22 -6 28 -6 6 -7 0 -4 -19z"/>
<path d="M4324 5312 c5 -8 -1 -12 -16 -13 -20 -1 -21 -2 -3 -6 11 -3 23 -10
27 -17 5 -6 8 -2 8 11 0 12 -5 25 -12 29 -7 4 -8 3 -4 -4z"/>
<path d="M4513 5304 c-3 -8 0 -21 7 -27 10 -9 11 -9 6 0 -4 7 3 13 16 16 l23
4 -23 2 c-13 0 -20 6 -17 11 3 6 4 10 0 10 -3 0 -8 -7 -12 -16z"/>
<path d="M1781 5293 c-1 -17 16 -25 25 -12 4 7 3 9 -4 5 -5 -3 -13 0 -15 6 -4
9 -6 10 -6 1z"/>
<path d="M1126 5275 c4 -8 11 -15 16 -15 6 0 5 6 -2 15 -7 8 -14 15 -16 15 -2
0 -1 -7 2 -15z"/>
<path d="M1495 5279 c-4 -6 -5 -12 -2 -15 2 -3 7 2 10 11 7 17 1 20 -8 4z"/>
<path d="M1928 5273 c6 -2 18 -2 25 0 6 3 1 5 -13 5 -14 0 -19 -2 -12 -5z"/>
<path d="M3158 5273 c7 -3 16 -2 19 1 4 3 -2 6 -13 5 -11 0 -14 -3 -6 -6z"/>
<path d="M1366 5122 c7 -4 14 -16 16 -27 3 -17 5 -15 10 8 4 23 2 27 -16 27
-13 0 -16 -3 -10 -8z"/>
<path d="M2029 5123 c-5 -45 -3 -63 6 -63 7 0 9 14 7 35 -4 32 -11 47 -13 28z"/>
<path d="M2939 5098 c-4 -33 -2 -38 16 -38 12 0 16 3 8 8 -6 4 -13 21 -15 37
-3 29 -4 29 -9 -7z"/>
<path d="M3210 5095 c0 -27 4 -35 18 -35 14 0 15 2 2 10 -13 9 -13 11 0 20 10
6 11 10 3 10 -22 0 -14 18 10 23 19 4 18 4 -5 6 -26 1 -28 -2 -28 -34z"/>
<path d="M3369 5098 c-4 -33 -2 -38 16 -38 12 0 16 3 8 8 -6 4 -13 21 -15 37
-3 29 -4 29 -9 -7z"/>
<path d="M3716 5121 c-4 -5 3 -7 14 -4 23 6 26 13 6 13 -8 0 -17 -4 -20 -9z"/>
<path d="M1413 5094 c-3 -8 0 -21 7 -27 10 -9 11 -9 6 0 -4 7 3 13 16 16 l23
4 -23 2 c-13 0 -20 6 -17 11 3 6 4 10 0 10 -3 0 -8 -7 -12 -16z"/>
<path d="M1550 5091 c0 -11 4 -22 9 -25 4 -3 6 6 3 19 -5 30 -12 33 -12 6z"/>
<path d="M1585 5085 c0 -14 3 -25 8 -25 4 0 7 11 7 25 0 14 -3 25 -7 25 -5 0
-8 -11 -8 -25z"/>
<path d="M1913 5094 c-3 -8 0 -21 7 -27 10 -9 11 -9 6 0 -4 7 3 13 16 16 l23
4 -23 2 c-13 0 -20 6 -17 11 3 6 4 10 0 10 -3 0 -8 -7 -12 -16z"/>
<path d="M2075 5085 c0 -19 5 -25 20 -24 11 0 14 3 8 6 -7 2 -13 13 -13 24 0
10 -3 19 -7 19 -5 0 -8 -11 -8 -25z"/>
<path d="M2134 5095 c-3 -8 1 -24 10 -37 9 -12 16 -17 16 -11 0 7 -5 15 -11
19 -6 3 -9 15 -6 25 6 22 -1 26 -9 4z"/>
<path d="M2234 5102 c5 -8 -1 -12 -16 -13 -20 -1 -21 -2 -3 -6 11 -3 23 -10
27 -17 5 -6 8 -2 8 11 0 12 -5 25 -12 29 -7 4 -8 3 -4 -4z"/>
<path d="M2423 5094 c-3 -8 0 -21 7 -27 10 -9 11 -9 6 0 -4 7 3 13 16 16 l23
4 -23 2 c-13 0 -20 6 -17 11 3 6 4 10 0 10 -3 0 -8 -7 -12 -16z"/>
<path d="M2560 5075 c0 -19 2 -35 4 -35 2 0 6 16 8 35 2 19 0 35 -4 35 -4 0
-8 -16 -8 -35z"/>
<path d="M2633 5094 c-3 -8 0 -21 7 -27 10 -9 11 -9 6 0 -4 7 3 13 16 16 l23
4 -23 2 c-13 0 -20 6 -17 11 3 6 4 10 0 10 -3 0 -8 -7 -12 -16z"/>
<path d="M2713 5094 c-3 -8 -2 -19 3 -24 5 -5 9 1 9 16 0 28 -3 30 -12 8z"/>
<path d="M2795 5085 c0 -19 5 -25 20 -24 11 0 14 3 8 6 -7 2 -13 13 -13 24 0
10 -3 19 -7 19 -5 0 -8 -11 -8 -25z"/>
<path d="M2884 5102 c5 -8 -1 -12 -16 -13 -20 -1 -21 -2 -3 -6 11 -3 23 -10
27 -17 5 -6 8 -2 8 11 0 12 -5 25 -12 29 -7 4 -8 3 -4 -4z"/>
<path d="M3283 5094 c-3 -8 0 -21 7 -27 10 -9 11 -9 6 0 -4 7 3 13 16 16 l23
4 -23 2 c-13 0 -20 6 -17 11 3 6 4 10 0 10 -3 0 -8 -7 -12 -16z"/>
<path d="M3445 5085 c0 -19 5 -25 20 -24 11 0 14 3 8 6 -7 2 -13 13 -13 24 0
10 -3 19 -7 19 -5 0 -8 -11 -8 -25z"/>
<path d="M3500 5075 c0 -19 2 -35 4 -35 2 0 6 16 8 35 2 19 0 35 -4 35 -4 0
-8 -16 -8 -35z"/>
<path d="M3573 5094 c-3 -8 0 -21 7 -27 10 -9 11 -9 6 0 -4 7 3 13 16 16 l23
4 -23 2 c-13 0 -20 6 -17 11 3 6 4 10 0 10 -3 0 -8 -7 -12 -16z"/>
<path d="M3824 5102 c5 -8 -1 -12 -16 -13 -20 -1 -21 -2 -3 -6 11 -3 23 -10
27 -17 5 -6 8 -2 8 11 0 12 -5 25 -12 29 -7 4 -8 3 -4 -4z"/>
<path d="M3938 5103 c6 -2 18 -2 25 0 6 3 1 5 -13 5 -14 0 -19 -2 -12 -5z"/>
<path d="M4008 5088 c-4 -24 -2 -28 16 -28 13 0 16 3 10 8 -7 4 -14 16 -16 27
-3 17 -5 15 -10 -7z"/>
<path d="M1340 5081 c0 -6 4 -13 10 -16 6 -3 7 1 4 9 -7 18 -14 21 -14 7z"/>
<path d="M1500 5086 c0 -2 7 -7 16 -10 8 -3 12 -2 9 4 -6 10 -25 14 -25 6z"/>
<path d="M1650 5086 c0 -2 7 -7 16 -10 8 -3 12 -2 9 4 -6 10 -25 14 -25 6z"/>
<path d="M2510 5086 c0 -2 7 -7 16 -10 8 -3 12 -2 9 4 -6 10 -25 14 -25 6z"/>
<path d="M3880 5086 c0 -2 7 -7 16 -10 8 -3 12 -2 9 4 -6 10 -25 14 -25 6z"/>
<path d="M1361 4873 c-1 -23 3 -44 7 -47 4 -2 6 12 4 32 -5 56 -10 62 -11 15z"/>
<path d="M1719 4878 c-4 -33 -2 -38 16 -38 12 0 16 3 8 8 -6 4 -13 21 -15 37
-3 29 -4 29 -9 -7z"/>
<path d="M1860 4868 c-3 -26 -1 -43 3 -39 5 5 7 26 5 47 l-3 39 -5 -47z"/>
<path d="M2215 4875 c0 -19 5 -35 10 -35 7 0 9 15 7 35 -2 19 -7 35 -11 35 -3
0 -6 -16 -6 -35z"/>
<path d="M2459 4903 c-5 -45 -3 -63 6 -63 7 0 9 14 7 35 -4 32 -11 47 -13 28z"/>
<path d="M2787 4903 c-3 -5 5 -8 18 -8 13 0 21 3 18 8 -2 4 -10 7 -18 7 -8 0
-16 -3 -18 -7z"/>
<path d="M3070 4875 c0 -27 4 -35 18 -34 10 0 12 3 5 6 -19 7 -16 53 3 53 11
0 14 -5 9 -17 -5 -14 -3 -15 6 -6 15 15 3 33 -22 33 -15 0 -19 -7 -19 -35z"/>
<path d="M3299 4878 c-4 -33 -2 -38 16 -38 12 0 16 3 8 8 -6 4 -13 21 -15 37
-3 29 -4 29 -9 -7z"/>
<path d="M3640 4875 c0 -32 2 -35 28 -34 23 2 24 2 5 6 -25 5 -30 18 -10 26
10 4 10 6 0 6 -7 1 -13 6 -13 12 0 6 9 9 20 6 11 -3 20 -1 20 4 0 5 -11 9 -25
9 -22 0 -25 -4 -25 -35z"/>
<path d="M4157 4903 c-3 -5 5 -8 18 -8 13 0 21 3 18 8 -2 4 -10 7 -18 7 -8 0
-16 -3 -18 -7z"/>
<path d="M4309 4878 c-4 -33 -2 -38 16 -38 12 0 16 3 8 8 -6 4 -13 21 -15 37
-3 29 -4 29 -9 -7z"/>
<path d="M1413 4874 c-3 -8 0 -21 7 -27 10 -9 11 -9 6 0 -4 7 3 13 16 16 l23
4 -23 2 c-13 0 -20 6 -17 11 3 6 4 10 0 10 -3 0 -8 -7 -12 -16z"/>
<path d="M1488 4883 c6 -2 18 -2 25 0 6 3 1 5 -13 5 -14 0 -19 -2 -12 -5z"/>
<path d="M1664 4882 c5 -8 -1 -12 -16 -13 -20 -1 -21 -2 -3 -6 11 -3 23 -10
27 -17 5 -6 8 -2 8 11 0 12 -5 25 -12 29 -7 4 -8 3 -4 -4z"/>
<path d="M2353 4874 c-3 -8 0 -21 7 -27 10 -9 11 -9 6 0 -4 7 3 13 16 16 l23
4 -23 2 c-13 0 -20 6 -17 11 3 6 4 10 0 10 -3 0 -8 -7 -12 -16z"/>
<path d="M2884 4882 c5 -8 -1 -12 -16 -13 -20 -1 -21 -2 -3 -6 11 -3 23 -10
27 -17 5 -6 8 -2 8 11 0 12 -5 25 -12 29 -7 4 -8 3 -4 -4z"/>
<path d="M3174 4882 c5 -8 -1 -12 -16 -13 -20 -1 -21 -2 -3 -6 11 -3 23 -10
27 -17 5 -6 8 -2 8 11 0 12 -5 25 -12 29 -7 4 -8 3 -4 -4z"/>
<path d="M3210 4871 c0 -11 4 -22 9 -25 4 -3 6 6 3 19 -5 30 -12 33 -12 6z"/>
<path d="M3245 4865 c0 -14 3 -25 8 -25 4 0 7 11 7 25 0 14 -3 25 -7 25 -5 0
-8 -11 -8 -25z"/>
<path d="M3710 4871 c0 -11 4 -22 9 -25 4 -3 6 6 3 19 -5 30 -12 33 -12 6z"/>
<path d="M3745 4865 c0 -14 3 -25 8 -25 4 0 7 11 7 25 0 14 -3 25 -7 25 -5 0
-8 -11 -8 -25z"/>
<path d="M3798 4868 c-4 -24 -2 -28 16 -28 13 0 16 3 10 8 -7 4 -14 16 -16 27
-3 17 -5 15 -10 -7z"/>
<path d="M3863 4874 c-3 -8 0 -21 7 -27 10 -9 11 -9 6 0 -4 7 3 13 16 16 l23
4 -23 2 c-13 0 -20 6 -17 11 3 6 4 10 0 10 -3 0 -8 -7 -12 -16z"/>
<path d="M3953 4879 c-9 -9 -8 -15 2 -25 18 -19 31 -18 15 1 -6 8 -9 19 -5 25
8 13 2 13 -12 -1z"/>
<path d="M4034 4882 c5 -8 -1 -12 -16 -13 -20 -1 -21 -2 -3 -6 11 -3 23 -10
27 -17 5 -6 8 -2 8 11 0 12 -5 25 -12 29 -7 4 -8 3 -4 -4z"/>
<path d="M4360 4871 c0 -11 4 -22 9 -25 4 -3 6 6 3 19 -5 30 -12 33 -12 6z"/>
<path d="M4395 4865 c0 -14 3 -25 8 -25 4 0 7 11 7 25 0 14 -3 25 -7 25 -5 0
-8 -11 -8 -25z"/>
<path d="M4434 4875 c-3 -8 1 -24 10 -37 9 -12 16 -17 16 -11 0 7 -5 15 -11
19 -6 3 -9 15 -6 25 6 22 -1 26 -9 4z"/>
<path d="M4583 4874 c-3 -8 0 -21 7 -27 10 -9 11 -9 6 0 -4 7 3 13 16 16 l23
4 -23 2 c-13 0 -20 6 -17 11 3 6 4 10 0 10 -3 0 -8 -7 -12 -16z"/>
<path d="M2078 4873 c6 -2 18 -2 25 0 6 3 1 5 -13 5 -14 0 -19 -2 -12 -5z"/>
<path d="M2648 4873 c6 -2 18 -2 25 0 6 3 1 5 -13 5 -14 0 -19 -2 -12 -5z"/>
<path d="M2809 4871 c8 -5 10 -14 6 -22 -6 -11 -5 -11 5 -2 14 12 6 33 -13 33
-8 0 -7 -3 2 -9z"/>
<path d="M4179 4871 c8 -5 10 -14 6 -22 -6 -11 -5 -11 5 -2 14 12 6 33 -13 33
-8 0 -7 -3 2 -9z"/>
<path d="M4670 4866 c0 -2 7 -7 16 -10 8 -3 12 -2 9 4 -6 10 -25 14 -25 6z"/>
<path d="M2780 4850 c0 -5 5 -10 11 -10 5 0 7 5 4 10 -3 6 -8 10 -11 10 -2 0
-4 -4 -4 -10z"/>
<path d="M4150 4850 c0 -5 5 -10 11 -10 5 0 7 5 4 10 -3 6 -8 10 -11 10 -2 0
-4 -4 -4 -10z"/>
<path d="M1340 4665 c0 -27 4 -35 18 -34 10 0 12 3 5 6 -19 7 -16 53 3 53 11
0 14 -5 9 -17 -5 -14 -3 -15 6 -6 15 15 3 33 -22 33 -15 0 -19 -7 -19 -35z"/>
<path d="M1519 4693 c-5 -45 -3 -63 6 -63 7 0 9 14 7 35 -4 32 -11 47 -13 28z"/>
<path d="M2520 4680 c0 -12 -7 -20 -17 -21 -14 0 -15 -2 -3 -6 8 -3 18 -11 22
-17 4 -6 8 6 8 27 0 20 -2 37 -5 37 -3 0 -5 -9 -5 -20z"/>
<path d="M2292 4659 l-24 -29 29 1 c18 1 22 3 10 6 -18 5 -18 6 -1 24 9 10 15
21 13 23 -2 2 -14 -10 -27 -25z"/>
<path d="M2389 4662 c-3 -20 -2 -29 4 -23 5 5 7 19 5 32 -3 20 -5 19 -9 -9z"/>
<path d="M2442 4659 l-24 -29 29 1 c18 1 22 3 10 6 -18 5 -18 6 -1 24 9 10 15
21 13 23 -2 2 -14 -10 -27 -25z"/>
<path d="M1413 4664 c-3 -8 0 -21 7 -27 10 -9 11 -9 6 0 -4 7 3 13 16 16 l23
4 -23 2 c-13 0 -20 6 -17 11 3 6 4 10 0 10 -3 0 -8 -7 -12 -16z"/>
<path d="M1584 4672 c5 -8 -1 -12 -16 -13 -20 -1 -21 -2 -3 -6 11 -3 23 -10
27 -17 5 -6 8 -2 8 11 0 12 -5 25 -12 29 -7 4 -8 3 -4 -4z"/>
<path d="M1665 4646 c0 -19 3 -32 8 -29 4 2 7 17 7 34 0 16 -3 29 -7 29 -5 0
-8 -15 -8 -34z"/>
<path d="M1805 4646 c0 -19 3 -32 8 -29 4 2 7 17 7 34 0 16 -3 29 -7 29 -5 0
-8 -15 -8 -34z"/>
<path d="M1855 4655 c0 -19 5 -25 20 -24 11 0 14 3 8 6 -7 2 -13 13 -13 24 0
10 -3 19 -7 19 -5 0 -8 -11 -8 -25z"/>
<path d="M1913 4664 c-3 -8 -2 -19 3 -24 5 -5 9 1 9 16 0 28 -3 30 -12 8z"/>
<path d="M2024 4672 c5 -8 -1 -12 -16 -13 -20 -1 -21 -2 -3 -6 11 -3 23 -10
27 -17 5 -6 8 -2 8 11 0 12 -5 25 -12 29 -7 4 -8 3 -4 -4z"/>
<path d="M2080 4656 c0 -2 7 -7 16 -10 8 -3 12 -2 9 4 -6 10 -25 14 -25 6z"/>
<path d="M2145 4639 c-4 -6 -5 -12 -2 -15 2 -3 7 2 10 11 7 17 1 20 -8 4z"/>
<path d="M2009 4448 c-4 -33 -2 -38 16 -38 12 0 16 3 8 8 -6 4 -13 21 -15 37
-3 29 -4 29 -9 -7z"/>
<path d="M2285 4445 c0 -19 5 -35 10 -35 7 0 9 15 7 35 -2 19 -7 35 -11 35 -3
0 -6 -16 -6 -35z"/>
<path d="M2380 4460 c0 -12 -7 -20 -17 -21 -14 0 -15 -2 -3 -6 8 -3 18 -11 22
-17 4 -6 8 6 8 27 0 20 -2 37 -5 37 -3 0 -5 -9 -5 -20z"/>
<path d="M2725 4445 c0 -19 5 -35 10 -35 7 0 9 15 7 35 -2 19 -7 35 -11 35 -3
0 -6 -16 -6 -35z"/>
<path d="M2652 4439 l-24 -29 29 1 c18 1 22 3 10 6 -18 5 -18 6 -1 24 9 10 15
21 13 23 -2 2 -14 -10 -27 -25z"/>
<path d="M1630 4425 c0 -19 2 -35 4 -35 2 0 6 16 8 35 2 19 0 35 -4 35 -4 0
-8 -16 -8 -35z"/>
<path d="M1925 4435 c0 -19 5 -25 20 -24 11 0 14 3 8 6 -7 2 -13 13 -13 24 0
10 -3 19 -7 19 -5 0 -8 -11 -8 -25z"/>
<path d="M2498 4448 c9 -9 9 -15 -1 -27 -10 -14 -10 -14 4 -4 10 8 19 9 27 3
9 -7 9 -7 2 2 -6 8 -5 17 3 27 11 14 10 14 -5 2 -12 -9 -18 -10 -18 -2 0 6 -5
11 -12 11 -9 0 -9 -3 0 -12z"/>
<path d="M2853 4444 c-3 -8 -2 -19 3 -24 5 -5 9 1 9 16 0 28 -3 30 -12 8z"/>
<path d="M2952 4454 c9 -3 19 -15 22 -27 4 -18 4 -18 3 3 -1 17 -8 25 -22 27
-14 1 -15 0 -3 -3z"/>
<path d="M1503 4443 c12 -3 16 -10 12 -21 -5 -13 -3 -14 6 -5 14 14 3 33 -19
32 -15 -1 -14 -2 1 -6z"/>
<path d="M1376 4423 c-6 -14 -5 -15 5 -6 7 7 10 15 7 18 -3 3 -9 -2 -12 -12z"/>
<path d="M1787 4423 c-4 -3 -7 -11 -7 -17 0 -6 5 -5 12 2 6 6 9 14 7 17 -3 3
-9 2 -12 -2z"/>
<path d="M2147 4423 c-4 -3 -7 -11 -7 -17 0 -6 5 -5 12 2 6 6 9 14 7 17 -3 3
-9 2 -12 -2z"/>
<path d="M1347 4043 c-3 -5 5 -8 18 -8 13 0 21 3 18 8 -2 4 -10 7 -18 7 -8 0
-16 -3 -18 -7z"/>
<path d="M2516 4042 c7 -4 14 -16 16 -27 3 -17 5 -15 10 8 4 23 2 27 -16 27
-13 0 -16 -3 -10 -8z"/>
<path d="M3118 4015 c-2 -19 0 -35 4 -35 4 0 8 16 8 35 0 19 -2 35 -4 35 -2 0
-6 -16 -8 -35z"/>
<path d="M3935 4015 c0 -32 3 -35 28 -35 15 0 27 4 27 9 0 5 -10 7 -21 4 -19
-5 -21 -3 -17 25 3 19 0 32 -6 32 -6 0 -11 -16 -11 -35z"/>
<path d="M4366 4041 c-4 -5 3 -7 14 -4 23 6 26 13 6 13 -8 0 -17 -4 -20 -9z"/>
<path d="M1410 4011 c0 -11 4 -22 9 -25 4 -3 6 6 3 19 -5 30 -12 33 -12 6z"/>
<path d="M1445 4005 c0 -14 3 -25 8 -25 4 0 7 11 7 25 0 14 -3 25 -7 25 -5 0
-8 -11 -8 -25z"/>
<path d="M1488 4023 c6 -2 18 -2 25 0 6 3 1 5 -13 5 -14 0 -19 -2 -12 -5z"/>
<path d="M1558 4008 c-4 -24 -2 -28 16 -28 13 0 16 3 10 8 -7 4 -14 16 -16 27
-3 17 -5 15 -10 -7z"/>
<path d="M1874 4022 c5 -8 -1 -12 -16 -13 -20 -1 -21 -2 -3 -6 11 -3 23 -10
27 -17 5 -6 8 -2 8 11 0 12 -5 25 -12 29 -7 4 -8 3 -4 -4z"/>
<path d="M1910 4011 c0 -11 4 -22 9 -25 4 -3 6 6 3 19 -5 30 -12 33 -12 6z"/>
<path d="M1945 4005 c0 -14 3 -25 8 -25 4 0 7 11 7 25 0 14 -3 25 -7 25 -5 0
-8 -11 -8 -25z"/>
<path d="M1998 4023 c6 -2 18 -2 25 0 6 3 1 5 -13 5 -14 0 -19 -2 -12 -5z"/>
<path d="M2138 4008 c-4 -24 -2 -28 16 -28 13 0 16 3 10 8 -7 4 -14 16 -16 27
-3 17 -5 15 -10 -7z"/>
<path d="M2203 4014 c-3 -8 0 -21 7 -27 10 -9 11 -9 6 0 -4 7 3 13 16 16 l23
4 -23 2 c-13 0 -20 6 -17 11 3 6 4 10 0 10 -3 0 -8 -7 -12 -16z"/>
<path d="M2594 4022 c5 -8 -1 -12 -16 -13 -20 -1 -21 -2 -3 -6 11 -3 23 -10
27 -17 5 -6 8 -2 8 11 0 12 -5 25 -12 29 -7 4 -8 3 -4 -4z"/>
<path d="M2632 4005 c0 -16 2 -22 5 -12 2 9 2 23 0 30 -3 6 -5 -1 -5 -18z"/>
<path d="M2668 4003 c5 -21 7 -23 10 -9 2 10 0 22 -6 28 -6 6 -7 0 -4 -19z"/>
<path d="M2744 4022 c5 -8 -1 -12 -16 -13 -20 -1 -21 -2 -3 -6 11 -3 23 -10
27 -17 5 -6 8 -2 8 11 0 12 -5 25 -12 29 -7 4 -8 3 -4 -4z"/>
<path d="M2795 4005 c0 -19 5 -25 20 -24 11 0 14 3 8 6 -7 2 -13 13 -13 24 0
10 -3 19 -7 19 -5 0 -8 -11 -8 -25z"/>
<path d="M2852 4005 c0 -16 2 -22 5 -12 2 9 2 23 0 30 -3 6 -5 -1 -5 -18z"/>
<path d="M2888 4003 c5 -21 7 -23 10 -9 2 10 0 22 -6 28 -6 6 -7 0 -4 -19z"/>
<path d="M2954 4022 c5 -8 -1 -12 -16 -13 -20 -1 -21 -2 -3 -6 11 -3 23 -10
27 -17 5 -6 8 -2 8 11 0 12 -5 25 -12 29 -7 4 -8 3 -4 -4z"/>
<path d="M3174 4022 c5 -8 -1 -12 -16 -13 -20 -1 -21 -2 -3 -6 11 -3 23 -10
27 -17 5 -6 8 -2 8 11 0 12 -5 25 -12 29 -7 4 -8 3 -4 -4z"/>
<path d="M3218 4008 c-4 -24 -2 -28 16 -28 13 0 16 3 10 8 -7 4 -14 16 -16 27
-3 17 -5 15 -10 -7z"/>
<path d="M3316 3999 c3 -44 11 -46 16 -5 2 22 0 36 -7 36 -6 0 -10 -14 -9 -31z"/>
<path d="M3350 4011 c0 -11 4 -22 9 -25 4 -3 6 6 3 19 -5 30 -12 33 -12 6z"/>
<path d="M3385 4005 c0 -14 3 -25 8 -25 4 0 7 11 7 25 0 14 -3 25 -7 25 -5 0
-8 -11 -8 -25z"/>
<path d="M3433 4014 c-3 -8 0 -21 7 -27 10 -9 11 -9 6 0 -4 7 3 13 16 16 l23
4 -23 2 c-13 0 -20 6 -17 11 3 6 4 10 0 10 -3 0 -8 -7 -12 -16z"/>
<path d="M3585 4005 c0 -19 5 -25 20 -24 11 0 14 3 8 6 -7 2 -13 13 -13 24 0
10 -3 19 -7 19 -5 0 -8 -11 -8 -25z"/>
<path d="M3642 4005 c0 -16 2 -22 5 -12 2 9 2 23 0 30 -3 6 -5 -1 -5 -18z"/>
<path d="M3678 4003 c5 -21 7 -23 10 -9 2 10 0 22 -6 28 -6 6 -7 0 -4 -19z"/>
<path d="M3725 4005 c0 -19 5 -25 20 -24 11 0 14 3 8 6 -7 2 -13 13 -13 24 0
10 -3 19 -7 19 -5 0 -8 -11 -8 -25z"/>
<path d="M4000 4011 c0 -11 4 -22 9 -25 4 -3 6 6 3 19 -5 30 -12 33 -12 6z"/>
<path d="M4035 4005 c0 -14 3 -25 8 -25 4 0 7 11 7 25 0 14 -3 25 -7 25 -5 0
-8 -11 -8 -25z"/>
<path d="M4104 4022 c5 -8 -1 -12 -16 -13 -20 -1 -21 -2 -3 -6 11 -3 23 -10
27 -17 5 -6 8 -2 8 11 0 12 -5 25 -12 29 -7 4 -8 3 -4 -4z"/>
<path d="M4152 4005 c0 -16 2 -22 5 -12 2 9 2 23 0 30 -3 6 -5 -1 -5 -18z"/>
<path d="M4188 4003 c5 -21 7 -23 10 -9 2 10 0 22 -6 28 -6 6 -7 0 -4 -19z"/>
<path d="M4254 4022 c5 -8 -1 -12 -16 -13 -20 -1 -21 -2 -3 -6 11 -3 23 -10
27 -17 5 -6 8 -2 8 11 0 12 -5 25 -12 29 -7 4 -8 3 -4 -4z"/>
<path d="M4588 4023 c6 -2 18 -2 25 0 6 3 1 5 -13 5 -14 0 -19 -2 -12 -5z"/>
<path d="M4684 4022 c5 -8 -1 -12 -16 -13 -20 -1 -21 -2 -3 -6 11 -3 23 -10
27 -17 5 -6 8 -2 8 11 0 12 -5 25 -12 29 -7 4 -8 3 -4 -4z"/>
<path d="M1720 4006 c0 -2 7 -7 16 -10 8 -3 12 -2 9 4 -6 10 -25 14 -25 6z"/>
<path d="M2290 4006 c0 -2 7 -7 16 -10 8 -3 12 -2 9 4 -6 10 -25 14 -25 6z"/>
<path d="M2490 4001 c0 -6 4 -13 10 -16 6 -3 7 1 4 9 -7 18 -14 21 -14 7z"/>
<path d="M3520 4006 c0 -2 7 -7 16 -10 8 -3 12 -2 9 4 -6 10 -25 14 -25 6z"/>
<path d="M4530 4006 c0 -2 7 -7 16 -10 8 -3 12 -2 9 4 -6 10 -25 14 -25 6z"/>
<path d="M3805 3989 c-4 -6 -5 -12 -2 -15 2 -3 7 2 10 11 7 17 1 20 -8 4z"/>
<path d="M4735 3989 c-4 -6 -5 -12 -2 -15 2 -3 7 2 10 11 7 17 1 20 -8 4z"/>
<path d="M1120 3796 c0 -20 4 -36 10 -36 5 0 7 7 4 15 -8 20 5 19 29 -2 14
-13 18 -13 11 -3 -5 8 -9 24 -9 35 0 13 -8 21 -22 23 -20 3 -23 -1 -23 -32z
m40 14 c0 -5 -7 -10 -15 -10 -8 0 -15 5 -15 10 0 6 7 10 15 10 8 0 15 -4 15
-10z"/>
<path d="M1499 3798 c-4 -33 -2 -38 16 -38 12 0 16 3 8 8 -6 4 -13 21 -15 37
-3 29 -4 29 -9 -7z"/>
<path d="M1678 3795 c-2 -19 0 -35 4 -35 4 0 8 16 8 35 0 19 -2 35 -4 35 -2 0
-6 -16 -8 -35z"/>
<path d="M1843 3795 c0 -22 2 -30 4 -17 2 12 2 30 0 40 -3 9 -5 -1 -4 -23z"/>
<path d="M1224 3802 c5 -8 -1 -12 -16 -13 -20 -1 -21 -2 -3 -6 11 -3 23 -10
27 -17 5 -6 8 -2 8 11 0 12 -5 25 -12 29 -7 4 -8 3 -4 -4z"/>
<path d="M1306 3779 c3 -44 11 -46 16 -5 2 22 0 36 -7 36 -6 0 -10 -14 -9 -31z"/>
<path d="M1340 3791 c0 -11 4 -22 9 -25 4 -3 6 6 3 19 -5 30 -12 33 -12 6z"/>
<path d="M1375 3785 c0 -14 3 -25 8 -25 4 0 7 11 7 25 0 14 -3 25 -7 25 -5 0
-8 -11 -8 -25z"/>
<path d="M1413 3794 c-3 -8 0 -21 7 -27 10 -9 11 -9 6 0 -4 7 3 13 16 16 l23
4 -23 2 c-13 0 -20 6 -17 11 3 6 4 10 0 10 -3 0 -8 -7 -12 -16z"/>
<path d="M1700 3791 c0 -11 4 -22 9 -25 4 -3 6 6 3 19 -5 30 -12 33 -12 6z"/>
<path d="M1735 3785 c0 -14 3 -25 8 -25 4 0 7 11 7 25 0 14 -3 25 -7 25 -5 0
-8 -11 -8 -25z"/>
<path d="M1772 3785 c0 -16 2 -22 5 -12 2 9 2 23 0 30 -3 6 -5 -1 -5 -18z"/>
<path d="M1808 3783 c5 -21 7 -23 10 -9 2 10 0 22 -6 28 -6 6 -7 0 -4 -19z"/>
<path d="M1878 3783 c5 -21 7 -23 10 -9 2 10 0 22 -6 28 -6 6 -7 0 -4 -19z"/>
<path d="M2003 3803 c9 -2 15 -9 12 -14 -10 -15 1 -10 15 6 11 13 8 15 -16 14
-17 -1 -22 -3 -11 -6z"/>
<path d="M2008 3763 c6 -2 18 -2 25 0 6 3 1 5 -13 5 -14 0 -19 -2 -12 -5z"/>
<path d="M1355 3585 c0 -19 5 -35 10 -35 6 0 10 16 10 35 0 19 -4 35 -10 35
-5 0 -10 -16 -10 -35z"/>
<path d="M1417 3613 c-3 -5 5 -8 18 -8 13 0 21 3 18 8 -2 4 -10 7 -18 7 -8 0
-16 -3 -18 -7z"/>
<path d="M1480 3586 c0 -33 2 -36 28 -35 23 2 24 2 5 6 -29 6 -30 19 -2 26 26
7 20 31 -9 35 -19 3 -22 -1 -22 -32z m40 14 c0 -5 -7 -10 -15 -10 -8 0 -15 5
-15 10 0 6 7 10 15 10 8 0 15 -4 15 -10z"/>
<path d="M1550 3587 c0 -20 3 -37 8 -37 9 0 8 57 -1 67 -4 3 -7 -10 -7 -30z"/>
<path d="M1593 3585 c0 -22 2 -30 4 -17 2 12 2 30 0 40 -3 9 -5 -1 -4 -23z"/>
<path d="M1737 3595 c-4 -8 -3 -16 1 -19 4 -3 9 4 9 15 2 23 -3 25 -10 4z"/>
<path d="M2307 3595 c-4 -8 -3 -16 1 -19 4 -3 9 4 9 15 2 23 -3 25 -10 4z"/>
<path d="M2387 3595 c-4 -8 -3 -16 1 -19 4 -3 9 4 9 15 2 23 -3 25 -10 4z"/>
<path d="M2442 3579 l-24 -29 29 1 c18 1 22 3 10 6 -18 5 -18 6 -1 24 9 10 15
21 13 23 -2 2 -14 -10 -27 -25z"/>
<path d="M2083 3593 c13 -3 17 -11 13 -25 -3 -15 -2 -18 6 -10 15 15 2 42 -19
41 -17 -1 -17 -2 0 -6z"/>
<path d="M2733 3593 c13 -3 17 -11 13 -25 -3 -15 -2 -18 6 -10 15 15 2 42 -19
41 -17 -1 -17 -2 0 -6z"/>
<path d="M1439 3581 c8 -5 10 -14 6 -22 -6 -11 -5 -11 5 -2 14 12 6 33 -13 33
-8 0 -7 -3 2 -9z"/>
<path d="M1863 3583 c12 -3 16 -10 12 -21 -5 -13 -3 -14 6 -5 14 14 3 33 -19
32 -15 -1 -14 -2 1 -6z"/>
<path d="M1923 3583 c9 -2 23 -2 30 0 6 3 -1 5 -18 5 -16 0 -22 -2 -12 -5z"/>
<path d="M2143 3583 c9 -2 23 -2 30 0 6 3 -1 5 -18 5 -16 0 -22 -2 -12 -5z"/>
<path d="M2223 3583 c12 -3 16 -10 12 -21 -5 -13 -3 -14 6 -5 14 14 3 33 -19
32 -15 -1 -14 -2 1 -6z"/>
<path d="M2573 3583 c9 -2 23 -2 30 0 6 3 -1 5 -18 5 -16 0 -22 -2 -12 -5z"/>
<path d="M2793 3583 c9 -2 23 -2 30 0 6 3 -1 5 -18 5 -16 0 -22 -2 -12 -5z"/>
<path d="M2526 3563 c-6 -14 -5 -15 5 -6 7 7 10 15 7 18 -3 3 -9 -2 -12 -12z"/>
<path d="M1410 3560 c0 -5 5 -10 11 -10 5 0 7 5 4 10 -3 6 -8 10 -11 10 -2 0
-4 -4 -4 -10z"/>
<path d="M1355 3145 c0 -19 5 -35 10 -35 7 0 9 15 7 35 -2 19 -7 35 -11 35 -3
0 -6 -16 -6 -35z"/>
<path d="M1526 3171 c-4 -5 3 -7 14 -4 23 6 26 13 6 13 -8 0 -17 -4 -20 -9z"/>
<path d="M2170 3147 c0 -20 4 -37 8 -37 9 0 7 58 -2 67 -3 4 -6 -10 -6 -30z"/>
<path d="M2549 3148 c-4 -33 -2 -38 16 -38 12 0 16 3 8 8 -6 4 -13 21 -15 37
-3 29 -4 29 -9 -7z"/>
<path d="M3170 3146 c0 -33 2 -36 28 -35 23 2 24 2 5 6 -29 6 -30 19 -2 26 26
7 20 31 -9 35 -19 3 -22 -1 -22 -32z m40 14 c0 -5 -7 -10 -15 -10 -8 0 -15 5
-15 10 0 6 7 10 15 10 8 0 15 -4 15 -10z"/>
<path d="M4186 3171 c-4 -5 3 -7 14 -4 23 6 26 13 6 13 -8 0 -17 -4 -20 -9z"/>
<path d="M4349 3148 c-4 -33 -2 -38 16 -38 12 0 16 3 8 8 -6 4 -13 21 -15 37
-3 29 -4 29 -9 -7z"/>
<path d="M3992 3139 l-24 -29 29 1 c18 1 22 3 10 6 -18 5 -18 6 -1 24 9 10 15
21 13 23 -2 2 -14 -10 -27 -25z"/>
<path d="M1624 3152 c5 -8 -1 -12 -16 -13 -20 -1 -21 -2 -3 -6 11 -3 23 -10
27 -17 5 -6 8 -2 8 11 0 12 -5 25 -12 29 -7 4 -8 3 -4 -4z"/>
<path d="M1662 3135 c0 -16 2 -22 5 -12 2 9 2 23 0 30 -3 6 -5 -1 -5 -18z"/>
<path d="M1698 3133 c5 -21 7 -23 10 -9 2 10 0 22 -6 28 -6 6 -7 0 -4 -19z"/>
<path d="M1738 3153 c6 -2 18 -2 25 0 6 3 1 5 -13 5 -14 0 -19 -2 -12 -5z"/>
<path d="M1888 3138 c-4 -24 -2 -28 16 -28 13 0 16 3 10 8 -7 4 -14 16 -16 27
-3 17 -5 15 -10 -7z"/>
<path d="M1984 3152 c5 -8 -1 -12 -16 -13 -20 -1 -21 -2 -3 -6 11 -3 23 -10
27 -17 5 -6 8 -2 8 11 0 12 -5 25 -12 29 -7 4 -8 3 -4 -4z"/>
<path d="M2248 3138 c-4 -24 -2 -28 16 -28 13 0 16 3 10 8 -7 4 -14 16 -16 27
-3 17 -5 15 -10 -7z"/>
<path d="M2344 3152 c5 -8 -1 -12 -16 -13 -20 -1 -21 -2 -3 -6 11 -3 23 -10
27 -17 5 -6 8 -2 8 11 0 12 -5 25 -12 29 -7 4 -8 3 -4 -4z"/>
<path d="M2465 3135 c0 -19 5 -25 20 -24 11 0 14 3 8 6 -7 2 -13 13 -13 24 0
10 -3 19 -7 19 -5 0 -8 -11 -8 -25z"/>
<path d="M2603 3144 c-3 -8 0 -21 7 -27 10 -9 11 -9 6 0 -4 7 3 13 16 16 l23
4 -23 2 c-13 0 -20 6 -17 11 3 6 4 10 0 10 -3 0 -8 -7 -12 -16z"/>
<path d="M2685 3135 c0 -19 5 -25 20 -24 11 0 14 3 8 6 -7 2 -13 13 -13 24 0
10 -3 19 -7 19 -5 0 -8 -11 -8 -25z"/>
<path d="M2748 3138 c-4 -24 -2 -28 16 -28 13 0 16 3 10 8 -7 4 -14 16 -16 27
-3 17 -5 15 -10 -7z"/>
<path d="M2844 3152 c5 -8 -1 -12 -16 -13 -20 -1 -21 -2 -3 -6 11 -3 23 -10
27 -17 5 -6 8 -2 8 11 0 12 -5 25 -12 29 -7 4 -8 3 -4 -4z"/>
<path d="M3265 3135 c0 -19 5 -25 20 -24 11 0 14 3 8 6 -7 2 -13 13 -13 24 0
10 -3 19 -7 19 -5 0 -8 -11 -8 -25z"/>
<path d="M3425 3126 c0 -19 3 -32 8 -29 4 2 7 17 7 34 0 16 -3 29 -7 29 -5 0
-8 -15 -8 -34z"/>
<path d="M3468 3138 c-4 -24 -2 -28 16 -28 13 0 16 3 10 8 -7 4 -14 16 -16 27
-3 17 -5 15 -10 -7z"/>
<path d="M3564 3152 c5 -8 -1 -12 -16 -13 -20 -1 -21 -2 -3 -6 11 -3 23 -10
27 -17 5 -6 8 -2 8 11 0 12 -5 25 -12 29 -7 4 -8 3 -4 -4z"/>
<path d="M3628 3153 c7 -3 16 -2 19 1 4 3 -2 6 -13 5 -11 0 -14 -3 -6 -6z"/>
<path d="M3695 3135 c0 -19 5 -25 20 -24 11 0 14 3 8 6 -7 2 -13 13 -13 24 0
10 -3 19 -7 19 -5 0 -8 -11 -8 -25z"/>
<path d="M3784 3152 c5 -8 -1 -12 -16 -13 -20 -1 -21 -2 -3 -6 11 -3 23 -10
27 -17 5 -6 8 -2 8 11 0 12 -5 25 -12 29 -7 4 -8 3 -4 -4z"/>
<path d="M4250 3141 c0 -11 4 -22 9 -25 4 -3 6 6 3 19 -5 30 -12 33 -12 6z"/>
<path d="M4285 3135 c0 -14 3 -25 8 -25 4 0 7 11 7 25 0 14 -3 25 -7 25 -5 0
-8 -11 -8 -25z"/>
<path d="M4408 3153 c6 -2 18 -2 25 0 6 3 1 5 -13 5 -14 0 -19 -2 -12 -5z"/>
<path d="M4470 3141 c0 -11 4 -22 9 -25 4 -3 6 6 3 19 -5 30 -12 33 -12 6z"/>
<path d="M4505 3135 c0 -14 3 -25 8 -25 4 0 7 11 7 25 0 14 -3 25 -7 25 -5 0
-8 -11 -8 -25z"/>
<path d="M4548 3138 c-4 -24 -2 -28 16 -28 13 0 16 3 10 8 -7 4 -14 16 -16 27
-3 17 -5 15 -10 -7z"/>
<path d="M4644 3152 c5 -8 -1 -12 -16 -13 -20 -1 -21 -2 -3 -6 11 -3 23 -10
27 -17 5 -6 8 -2 8 11 0 12 -5 25 -12 29 -7 4 -8 3 -4 -4z"/>
<path d="M3048 3143 c6 -2 18 -2 25 0 6 3 1 5 -13 5 -14 0 -19 -2 -12 -5z"/>
<path d="M2040 3136 c0 -2 7 -7 16 -10 8 -3 12 -2 9 4 -6 10 -25 14 -25 6z"/>
<path d="M2400 3136 c0 -2 7 -7 16 -10 8 -3 12 -2 9 4 -6 10 -25 14 -25 6z"/>
<path d="M2910 3136 c0 -2 7 -7 16 -10 8 -3 12 -2 9 4 -6 10 -25 14 -25 6z"/>
<path d="M3628 3113 c7 -3 16 -2 19 1 4 3 -2 6 -13 5 -11 0 -14 -3 -6 -6z"/>
<path d="M1480 2937 c0 -20 4 -37 8 -37 9 0 7 58 -2 67 -3 4 -6 -10 -6 -30z"/>
<path d="M1859 2938 c-4 -33 -2 -38 16 -38 12 0 16 3 8 8 -6 4 -13 21 -15 37
-3 29 -4 29 -9 -7z"/>
<path d="M2560 2935 c0 -32 2 -35 28 -34 23 2 24 2 5 6 -25 5 -30 18 -10 26
10 4 10 6 0 6 -7 1 -13 6 -13 12 0 6 9 9 20 6 11 -3 20 -1 20 4 0 5 -11 9 -25
9 -22 0 -25 -4 -25 -35z"/>
<path d="M2669 2963 c-5 -45 -3 -63 6 -63 7 0 9 14 7 35 -4 32 -11 47 -13 28z"/>
<path d="M3249 2963 c-5 -45 -3 -63 6 -63 7 0 9 14 7 35 -4 32 -11 47 -13 28z"/>
<path d="M4189 2963 c-5 -45 -3 -63 6 -63 7 0 9 14 7 35 -4 32 -11 47 -13 28z"/>
<path d="M4309 2938 c-4 -33 -2 -38 16 -38 12 0 16 3 8 8 -6 4 -13 21 -15 37
-3 29 -4 29 -9 -7z"/>
<path d="M1154 2942 c5 -8 -1 -12 -16 -13 -20 -1 -21 -2 -3 -6 11 -3 23 -10
27 -17 5 -6 8 -2 8 11 0 12 -5 25 -12 29 -7 4 -8 3 -4 -4z"/>
<path d="M1208 2943 c7 -3 16 -2 19 1 4 3 -2 6 -13 5 -11 0 -14 -3 -6 -6z"/>
<path d="M1278 2928 c-4 -24 -2 -28 16 -28 13 0 16 3 10 8 -7 4 -14 16 -16 27
-3 17 -5 15 -10 -7z"/>
<path d="M1558 2928 c-4 -24 -2 -28 16 -28 13 0 16 3 10 8 -7 4 -14 16 -16 27
-3 17 -5 15 -10 -7z"/>
<path d="M1664 2942 c5 -8 -1 -12 -16 -13 -20 -1 -21 -2 -3 -6 11 -3 23 -10
27 -17 5 -6 8 -2 8 11 0 12 -5 25 -12 29 -7 4 -8 3 -4 -4z"/>
<path d="M1785 2925 c0 -19 5 -25 20 -24 11 0 14 3 8 6 -7 2 -13 13 -13 24 0
10 -3 19 -7 19 -5 0 -8 -11 -8 -25z"/>
<path d="M1913 2934 c-3 -8 0 -21 7 -27 10 -9 11 -9 6 0 -4 7 3 13 16 16 l23
4 -23 2 c-13 0 -20 6 -17 11 3 6 4 10 0 10 -3 0 -8 -7 -12 -16z"/>
<path d="M2005 2925 c0 -19 5 -25 20 -24 11 0 14 3 8 6 -7 2 -13 13 -13 24 0
10 -3 19 -7 19 -5 0 -8 -11 -8 -25z"/>
<path d="M2068 2928 c-4 -24 -2 -28 16 -28 13 0 16 3 10 8 -7 4 -14 16 -16 27
-3 17 -5 15 -10 -7z"/>
<path d="M2164 2942 c5 -8 -1 -12 -16 -13 -20 -1 -21 -2 -3 -6 11 -3 23 -10
27 -17 5 -6 8 -2 8 11 0 12 -5 25 -12 29 -7 4 -8 3 -4 -4z"/>
<path d="M2710 2931 c0 -11 4 -22 9 -25 4 -3 6 6 3 19 -5 30 -12 33 -12 6z"/>
<path d="M2745 2925 c0 -14 3 -25 8 -25 4 0 7 11 7 25 0 14 -3 25 -7 25 -5 0
-8 -11 -8 -25z"/>
<path d="M2783 2934 c-3 -8 -2 -19 3 -24 5 -5 9 1 9 16 0 28 -3 30 -12 8z"/>
<path d="M2884 2942 c5 -8 -1 -12 -16 -13 -20 -1 -21 -2 -3 -6 11 -3 23 -10
27 -17 5 -6 8 -2 8 11 0 12 -5 25 -12 29 -7 4 -8 3 -4 -4z"/>
<path d="M2924 2935 c-3 -8 1 -24 10 -37 9 -12 16 -17 16 -11 0 7 -5 15 -11
19 -6 3 -9 15 -6 25 6 22 -1 26 -9 4z"/>
<path d="M3024 2942 c5 -8 -1 -12 -16 -13 -20 -1 -21 -2 -3 -6 11 -3 23 -10
27 -17 5 -6 8 -2 8 11 0 12 -5 25 -12 29 -7 4 -8 3 -4 -4z"/>
<path d="M3283 2934 c-3 -8 0 -21 7 -27 10 -9 11 -9 6 0 -4 7 3 13 16 16 l23
4 -23 2 c-13 0 -20 6 -17 11 3 6 4 10 0 10 -3 0 -8 -7 -12 -16z"/>
<path d="M3453 2943 c14 -4 18 -12 15 -33 -2 -16 -1 -27 4 -24 4 3 8 18 8 35
0 24 -4 29 -22 28 -19 -1 -20 -2 -5 -6z"/>
<path d="M3643 2934 c-3 -8 0 -21 7 -27 10 -9 11 -9 6 0 -4 7 3 13 16 16 l23
4 -23 2 c-13 0 -20 6 -17 11 3 6 4 10 0 10 -3 0 -8 -7 -12 -16z"/>
<path d="M3712 2925 c0 -16 2 -22 5 -12 2 9 2 23 0 30 -3 6 -5 -1 -5 -18z"/>
<path d="M3748 2923 c5 -21 7 -23 10 -9 2 10 0 22 -6 28 -6 6 -7 0 -4 -19z"/>
<path d="M3933 2934 c-3 -8 0 -21 7 -27 10 -9 11 -9 6 0 -4 7 3 13 16 16 l23
4 -23 2 c-13 0 -20 6 -17 11 3 6 4 10 0 10 -3 0 -8 -7 -12 -16z"/>
<path d="M4104 2942 c5 -8 -1 -12 -16 -13 -20 -1 -21 -2 -3 -6 11 -3 23 -10
27 -17 5 -6 8 -2 8 11 0 12 -5 25 -12 29 -7 4 -8 3 -4 -4z"/>
<path d="M4220 2931 c0 -11 4 -22 9 -25 4 -3 6 6 3 19 -5 30 -12 33 -12 6z"/>
<path d="M4255 2925 c0 -14 3 -25 8 -25 4 0 7 11 7 25 0 14 -3 25 -7 25 -5 0
-8 -11 -8 -25z"/>
<path d="M4368 2943 c6 -2 18 -2 25 0 6 3 1 5 -13 5 -14 0 -19 -2 -12 -5z"/>
<path d="M1423 2933 c9 -2 23 -2 30 0 6 3 -1 5 -18 5 -16 0 -22 -2 -12 -5z"/>
<path d="M1720 2926 c0 -2 7 -7 16 -10 8 -3 12 -2 9 4 -6 10 -25 14 -25 6z"/>
<path d="M2386 2913 c-6 -14 -5 -15 5 -6 7 7 10 15 7 18 -3 3 -9 -2 -12 -12z"/>
<path d="M3581 2923 c-1 -17 16 -25 25 -12 4 7 3 9 -4 5 -5 -3 -13 0 -15 6 -4
9 -6 10 -6 1z"/>
<path d="M3810 2926 c0 -2 7 -7 16 -10 8 -3 12 -2 9 4 -6 10 -25 14 -25 6z"/>
<path d="M4530 2926 c0 -2 7 -7 16 -10 8 -3 12 -2 9 4 -6 10 -25 14 -25 6z"/>
<path d="M1208 2903 c7 -3 16 -2 19 1 4 3 -2 6 -13 5 -11 0 -14 -3 -6 -6z"/>
<path d="M1150 2730 c0 -12 -7 -20 -17 -21 -14 0 -15 -2 -3 -6 8 -3 18 -11 22
-17 4 -6 8 6 8 27 0 20 -2 37 -5 37 -3 0 -5 -9 -5 -20z"/>
<path d="M1340 2715 c0 -32 2 -35 28 -34 23 2 24 2 5 6 -25 5 -30 18 -10 26
10 4 10 6 0 6 -7 1 -13 6 -13 12 0 6 9 9 20 6 11 -3 20 -1 20 4 0 5 -11 9 -25
9 -22 0 -25 -4 -25 -35z"/>
<path d="M2029 2743 c-5 -45 -3 -63 6 -63 7 0 9 14 7 35 -4 32 -11 47 -13 28z"/>
<path d="M2586 2742 c7 -4 14 -16 16 -27 3 -17 5 -15 10 8 4 23 2 27 -16 27
-13 0 -16 -3 -10 -8z"/>
<path d="M3076 2741 c-4 -5 3 -7 14 -4 23 6 26 13 6 13 -8 0 -17 -4 -20 -9z"/>
<path d="M3159 2718 c-4 -33 -2 -38 16 -38 12 0 16 3 8 8 -6 4 -13 21 -15 37
-3 29 -4 29 -9 -7z"/>
<path d="M3945 2715 c0 -19 5 -35 10 -35 7 0 9 15 7 35 -2 19 -7 35 -11 35 -3
0 -6 -16 -6 -35z"/>
<path d="M4165 2715 c0 -19 5 -35 10 -35 7 0 9 15 7 35 -2 19 -7 35 -11 35 -3
0 -6 -16 -6 -35z"/>
<path d="M4305 2715 c0 -19 5 -35 10 -35 7 0 9 15 7 35 -2 19 -7 35 -11 35 -3
0 -6 -16 -6 -35z"/>
<path d="M4037 2725 c-4 -8 -3 -16 1 -19 4 -3 9 4 9 15 2 23 -3 25 -10 4z"/>
<path d="M4109 2712 c-3 -20 -2 -29 4 -23 5 5 7 19 5 32 -3 20 -5 19 -9 -9z"/>
<path d="M4397 2725 c-4 -8 -3 -16 1 -19 4 -3 9 4 9 15 2 23 -3 25 -10 4z"/>
<path d="M1412 2705 c0 -16 2 -22 5 -12 2 9 2 23 0 30 -3 6 -5 -1 -5 -18z"/>
<path d="M1448 2703 c5 -21 7 -23 10 -9 2 10 0 22 -6 28 -6 6 -7 0 -4 -19z"/>
<path d="M1565 2705 c0 -19 5 -25 20 -24 11 0 14 3 8 6 -7 2 -13 13 -13 24 0
10 -3 19 -7 19 -5 0 -8 -11 -8 -25z"/>
<path d="M1632 2705 c0 -16 2 -22 5 -12 2 9 2 23 0 30 -3 6 -5 -1 -5 -18z"/>
<path d="M1668 2703 c5 -21 7 -23 10 -9 2 10 0 22 -6 28 -6 6 -7 0 -4 -19z"/>
<path d="M1872 2724 c9 -3 19 -15 22 -27 4 -18 4 -18 3 3 -1 17 -8 25 -22 27
-14 1 -15 0 -3 -3z"/>
<path d="M1913 2714 c-3 -8 0 -21 7 -27 10 -9 11 -9 6 0 -4 7 3 13 16 16 l23
4 -23 2 c-13 0 -20 6 -17 11 3 6 4 10 0 10 -3 0 -8 -7 -12 -16z"/>
<path d="M2075 2705 c0 -19 5 -25 20 -24 11 0 14 3 8 6 -7 2 -13 13 -13 24 0
10 -3 19 -7 19 -5 0 -8 -11 -8 -25z"/>
<path d="M2373 2723 c13 -3 17 -11 13 -25 -3 -15 -2 -18 6 -10 15 15 2 42 -19
41 -17 -1 -17 -2 0 -6z"/>
<path d="M2633 2714 c-3 -8 0 -21 7 -27 10 -9 11 -9 6 0 -4 7 3 13 16 16 l23
4 -23 2 c-13 0 -20 6 -17 11 3 6 4 10 0 10 -3 0 -8 -7 -12 -16z"/>
<path d="M2780 2711 c0 -11 4 -22 9 -25 4 -3 6 6 3 19 -5 30 -12 33 -12 6z"/>
<path d="M2815 2705 c0 -14 3 -25 8 -25 4 0 7 11 7 25 0 14 -3 25 -7 25 -5 0
-8 -11 -8 -25z"/>
<path d="M3213 2714 c-3 -8 0 -21 7 -27 10 -9 11 -9 6 0 -4 7 3 13 16 16 l23
4 -23 2 c-13 0 -20 6 -17 11 3 6 4 10 0 10 -3 0 -8 -7 -12 -16z"/>
<path d="M3312 2724 c9 -3 19 -15 22 -27 4 -18 4 -18 3 3 -1 17 -8 25 -22 27
-14 1 -15 0 -3 -3z"/>
<path d="M3353 2714 c-3 -8 0 -21 7 -27 10 -9 11 -9 6 0 -4 7 3 13 16 16 l23
4 -23 2 c-13 0 -20 6 -17 11 3 6 4 10 0 10 -3 0 -8 -7 -12 -16z"/>
<path d="M3432 2705 c0 -16 2 -22 5 -12 2 9 2 23 0 30 -3 6 -5 -1 -5 -18z"/>
<path d="M3468 2703 c5 -21 7 -23 10 -9 2 10 0 22 -6 28 -6 6 -7 0 -4 -19z"/>
<path d="M3508 2723 c6 -2 18 -2 25 0 6 3 1 5 -13 5 -14 0 -19 -2 -12 -5z"/>
<path d="M3585 2705 c0 -19 5 -25 20 -24 11 0 14 3 8 6 -7 2 -13 13 -13 24 0
10 -3 19 -7 19 -5 0 -8 -11 -8 -25z"/>
<path d="M3642 2705 c0 -16 2 -22 5 -12 2 9 2 23 0 30 -3 6 -5 -1 -5 -18z"/>
<path d="M3678 2703 c5 -21 7 -23 10 -9 2 10 0 22 -6 28 -6 6 -7 0 -4 -19z"/>
<path d="M3744 2722 c5 -8 -1 -12 -16 -13 -20 -1 -21 -2 -3 -6 11 -3 23 -10
27 -17 5 -6 8 -2 8 11 0 12 -5 25 -12 29 -7 4 -8 3 -4 -4z"/>
<path d="M4233 2713 c9 -2 23 -2 30 0 6 3 -1 5 -18 5 -16 0 -22 -2 -12 -5z"/>
<path d="M4453 2713 c12 -3 16 -10 12 -21 -5 -13 -3 -14 6 -5 14 14 3 33 -19
32 -15 -1 -14 -2 1 -6z"/>
<path d="M4668 2713 c6 -2 18 -2 25 0 6 3 1 5 -13 5 -14 0 -19 -2 -12 -5z"/>
<path d="M1500 2706 c0 -2 7 -7 16 -10 8 -3 12 -2 9 4 -6 10 -25 14 -25 6z"/>
<path d="M2560 2701 c0 -6 4 -13 10 -16 6 -3 7 1 4 9 -7 18 -14 21 -14 7z"/>
<path d="M2730 2706 c0 -2 7 -7 16 -10 8 -3 12 -2 9 4 -6 10 -25 14 -25 6z"/>
<path d="M2870 2706 c0 -2 7 -7 16 -10 8 -3 12 -2 9 4 -6 10 -25 14 -25 6z"/>
<path d="M2935 2689 c-4 -6 -5 -12 -2 -15 2 -3 7 2 10 11 7 17 1 20 -8 4z"/>
<path d="M3805 2689 c-4 -6 -5 -12 -2 -15 2 -3 7 2 10 11 7 17 1 20 -8 4z"/>
<path d="M1126 2531 c-4 -5 3 -7 14 -4 23 6 26 13 6 13 -8 0 -17 -4 -20 -9z"/>
<path d="M3188 2505 c-2 -19 0 -35 4 -35 4 0 8 16 8 35 0 19 -2 35 -4 35 -2 0
-6 -16 -8 -35z"/>
<path d="M3949 2508 c-4 -33 -2 -38 16 -38 12 0 16 3 8 8 -6 4 -13 21 -15 37
-3 29 -4 29 -9 -7z"/>
<path d="M1198 2498 c-4 -24 -2 -28 16 -28 13 0 16 3 10 8 -7 4 -14 16 -16 27
-3 17 -5 15 -10 -7z"/>
<path d="M1285 2495 c0 -19 5 -25 20 -24 11 0 14 3 8 6 -7 2 -13 13 -13 24 0
10 -3 19 -7 19 -5 0 -8 -11 -8 -25z"/>
<path d="M1348 2513 c6 -2 18 -2 25 0 6 3 1 5 -13 5 -14 0 -19 -2 -12 -5z"/>
<path d="M1425 2495 c0 -19 5 -25 20 -24 11 0 14 3 8 6 -7 2 -13 13 -13 24 0
10 -3 19 -7 19 -5 0 -8 -11 -8 -25z"/>
<path d="M1483 2504 c-3 -8 -2 -19 3 -24 5 -5 9 1 9 16 0 28 -3 30 -12 8z"/>
<path d="M1584 2512 c5 -8 -1 -12 -16 -13 -20 -1 -21 -2 -3 -6 11 -3 23 -10
27 -17 5 -6 8 -2 8 11 0 12 -5 25 -12 29 -7 4 -8 3 -4 -4z"/>
<path d="M1703 2504 c-3 -8 0 -21 7 -27 10 -9 11 -9 6 0 -4 7 3 13 16 16 l23
4 -23 2 c-13 0 -20 6 -17 11 3 6 4 10 0 10 -3 0 -8 -7 -12 -16z"/>
<path d="M1855 2495 c0 -19 5 -25 20 -24 11 0 14 3 8 6 -7 2 -13 13 -13 24 0
10 -3 19 -7 19 -5 0 -8 -11 -8 -25z"/>
<path d="M1912 2495 c0 -16 2 -22 5 -12 2 9 2 23 0 30 -3 6 -5 -1 -5 -18z"/>
<path d="M1948 2493 c5 -21 7 -23 10 -9 2 10 0 22 -6 28 -6 6 -7 0 -4 -19z"/>
<path d="M1998 2513 c6 -2 18 -2 25 0 6 3 1 5 -13 5 -14 0 -19 -2 -12 -5z"/>
<path d="M2063 2504 c-3 -8 0 -21 7 -27 10 -9 11 -9 6 0 -4 7 3 13 16 16 l23
4 -23 2 c-13 0 -20 6 -17 11 3 6 4 10 0 10 -3 0 -8 -7 -12 -16z"/>
<path d="M2138 2498 c-4 -24 -2 -28 16 -28 13 0 16 3 10 8 -7 4 -14 16 -16 27
-3 17 -5 15 -10 -7z"/>
<path d="M2200 2485 c0 -19 2 -35 4 -35 2 0 6 16 8 35 2 19 0 35 -4 35 -4 0
-8 -16 -8 -35z"/>
<path d="M2278 2498 c-4 -24 -2 -28 16 -28 13 0 16 3 10 8 -7 4 -14 16 -16 27
-3 17 -5 15 -10 -7z"/>
<path d="M2353 2504 c-3 -8 0 -21 7 -27 10 -9 11 -9 6 0 -4 7 3 13 16 16 l23
4 -23 2 c-13 0 -20 6 -17 11 3 6 4 10 0 10 -3 0 -8 -7 -12 -16z"/>
<path d="M2428 2513 c6 -2 18 -2 25 0 6 3 1 5 -13 5 -14 0 -19 -2 -12 -5z"/>
<path d="M2524 2512 c5 -8 -1 -12 -16 -13 -20 -1 -21 -2 -3 -6 11 -3 23 -10
27 -17 5 -6 8 -2 8 11 0 12 -5 25 -12 29 -7 4 -8 3 -4 -4z"/>
<path d="M2564 2505 c-3 -8 1 -24 10 -37 9 -12 16 -17 16 -11 0 7 -5 15 -11
19 -6 3 -9 15 -6 25 6 22 -1 26 -9 4z"/>
<path d="M2664 2512 c5 -8 -1 -12 -16 -13 -20 -1 -21 -2 -3 -6 11 -3 23 -10
27 -17 5 -6 8 -2 8 11 0 12 -5 25 -12 29 -7 4 -8 3 -4 -4z"/>
<path d="M3210 2501 c0 -11 4 -22 9 -25 4 -3 6 6 3 19 -5 30 -12 33 -12 6z"/>
<path d="M3245 2495 c0 -14 3 -25 8 -25 4 0 7 11 7 25 0 14 -3 25 -7 25 -5 0
-8 -11 -8 -25z"/>
<path d="M3365 2495 c0 -19 5 -25 20 -24 11 0 14 3 8 6 -7 2 -13 13 -13 24 0
10 -3 19 -7 19 -5 0 -8 -11 -8 -25z"/>
<path d="M3433 2504 c-3 -8 -2 -19 3 -24 5 -5 9 1 9 16 0 28 -3 30 -12 8z"/>
<path d="M3534 2512 c5 -8 -1 -12 -16 -13 -20 -1 -21 -2 -3 -6 11 -3 23 -10
27 -17 5 -6 8 -2 8 11 0 12 -5 25 -12 29 -7 4 -8 3 -4 -4z"/>
<path d="M3640 2485 c0 -19 2 -35 4 -35 2 0 6 16 8 35 2 19 0 35 -4 35 -4 0
-8 -16 -8 -35z"/>
<path d="M3790 2485 c0 -19 2 -35 4 -35 2 0 6 16 8 35 2 19 0 35 -4 35 -4 0
-8 -16 -8 -35z"/>
<path d="M3860 2501 c0 -11 4 -22 9 -25 4 -3 6 6 3 19 -5 30 -12 33 -12 6z"/>
<path d="M3895 2495 c0 -14 3 -25 8 -25 4 0 7 11 7 25 0 14 -3 25 -7 25 -5 0
-8 -11 -8 -25z"/>
<path d="M4034 2512 c5 -8 -1 -12 -16 -13 -20 -1 -21 -2 -3 -6 11 -3 23 -10
27 -17 5 -6 8 -2 8 11 0 12 -5 25 -12 29 -7 4 -8 3 -4 -4z"/>
<path d="M4078 2498 c-4 -24 -2 -28 16 -28 13 0 16 3 10 8 -7 4 -14 16 -16 27
-3 17 -5 15 -10 -7z"/>
<path d="M3300 2496 c0 -2 7 -7 16 -10 8 -3 12 -2 9 4 -6 10 -25 14 -25 6z"/>
<path d="M1120 2287 c0 -20 4 -37 8 -37 9 0 7 58 -2 67 -3 4 -6 -10 -6 -30z"/>
<path d="M1499 2288 c-4 -33 -2 -38 16 -38 12 0 16 3 8 8 -6 4 -13 21 -15 37
-3 29 -4 29 -9 -7z"/>
<path d="M2066 2311 c-4 -5 3 -7 14 -4 23 6 26 13 6 13 -8 0 -17 -4 -20 -9z"/>
<path d="M4118 2285 c-2 -19 0 -35 4 -35 4 0 8 16 8 35 0 19 -2 35 -4 35 -2 0
-6 -16 -8 -35z"/>
<path d="M1198 2278 c-4 -24 -2 -28 16 -28 13 0 16 3 10 8 -7 4 -14 16 -16 27
-3 17 -5 15 -10 -7z"/>
<path d="M1304 2292 c5 -8 -1 -12 -16 -13 -20 -1 -21 -2 -3 -6 11 -3 23 -10
27 -17 5 -6 8 -2 8 11 0 12 -5 25 -12 29 -7 4 -8 3 -4 -4z"/>
<path d="M1425 2275 c0 -19 5 -25 20 -24 11 0 14 3 8 6 -7 2 -13 13 -13 24 0
10 -3 19 -7 19 -5 0 -8 -11 -8 -25z"/>
<path d="M1553 2284 c-3 -8 0 -21 7 -27 10 -9 11 -9 6 0 -4 7 3 13 16 16 l23
4 -23 2 c-13 0 -20 6 -17 11 3 6 4 10 0 10 -3 0 -8 -7 -12 -16z"/>
<path d="M1645 2275 c0 -19 5 -25 20 -24 11 0 14 3 8 6 -7 2 -13 13 -13 24 0
10 -3 19 -7 19 -5 0 -8 -11 -8 -25z"/>
<path d="M1708 2278 c-4 -24 -2 -28 16 -28 13 0 16 3 10 8 -7 4 -14 16 -16 27
-3 17 -5 15 -10 -7z"/>
<path d="M1804 2292 c5 -8 -1 -12 -16 -13 -20 -1 -21 -2 -3 -6 11 -3 23 -10
27 -17 5 -6 8 -2 8 11 0 12 -5 25 -12 29 -7 4 -8 3 -4 -4z"/>
<path d="M2138 2278 c-4 -24 -2 -28 16 -28 13 0 16 3 10 8 -7 4 -14 16 -16 27
-3 17 -5 15 -10 -7z"/>
<path d="M2215 2275 c0 -19 5 -25 20 -24 11 0 14 3 8 6 -7 2 -13 13 -13 24 0
10 -3 19 -7 19 -5 0 -8 -11 -8 -25z"/>
<path d="M2278 2293 c6 -2 18 -2 25 0 6 3 1 5 -13 5 -14 0 -19 -2 -12 -5z"/>
<path d="M2365 2275 c0 -19 5 -25 20 -24 11 0 14 3 8 6 -7 2 -13 13 -13 24 0
10 -3 19 -7 19 -5 0 -8 -11 -8 -25z"/>
<path d="M2423 2284 c-3 -8 -2 -19 3 -24 5 -5 9 1 9 16 0 28 -3 30 -12 8z"/>
<path d="M2524 2292 c5 -8 -1 -12 -16 -13 -20 -1 -21 -2 -3 -6 11 -3 23 -10
27 -17 5 -6 8 -2 8 11 0 12 -5 25 -12 29 -7 4 -8 3 -4 -4z"/>
<path d="M2633 2284 c-3 -8 0 -21 7 -27 10 -9 11 -9 6 0 -4 7 3 13 16 16 l23
4 -23 2 c-13 0 -20 6 -17 11 3 6 4 10 0 10 -3 0 -8 -7 -12 -16z"/>
<path d="M2795 2275 c0 -19 5 -25 20 -24 11 0 14 3 8 6 -7 2 -13 13 -13 24 0
10 -3 19 -7 19 -5 0 -8 -11 -8 -25z"/>
<path d="M2852 2275 c0 -16 2 -22 5 -12 2 9 2 23 0 30 -3 6 -5 -1 -5 -18z"/>
<path d="M2888 2273 c5 -21 7 -23 10 -9 2 10 0 22 -6 28 -6 6 -7 0 -4 -19z"/>
<path d="M2928 2293 c6 -2 18 -2 25 0 6 3 1 5 -13 5 -14 0 -19 -2 -12 -5z"/>
<path d="M2993 2284 c-3 -8 0 -21 7 -27 10 -9 11 -9 6 0 -4 7 3 13 16 16 l23
4 -23 2 c-13 0 -20 6 -17 11 3 6 4 10 0 10 -3 0 -8 -7 -12 -16z"/>
<path d="M3078 2278 c-4 -24 -2 -28 16 -28 13 0 16 3 10 8 -7 4 -14 16 -16 27
-3 17 -5 15 -10 -7z"/>
<path d="M3140 2265 c0 -19 2 -35 4 -35 2 0 6 16 8 35 2 19 0 35 -4 35 -4 0
-8 -16 -8 -35z"/>
<path d="M3218 2278 c-4 -24 -2 -28 16 -28 13 0 16 3 10 8 -7 4 -14 16 -16 27
-3 17 -5 15 -10 -7z"/>
<path d="M3283 2284 c-3 -8 0 -21 7 -27 10 -9 11 -9 6 0 -4 7 3 13 16 16 l23
4 -23 2 c-13 0 -20 6 -17 11 3 6 4 10 0 10 -3 0 -8 -7 -12 -16z"/>
<path d="M3358 2293 c6 -2 18 -2 25 0 6 3 1 5 -13 5 -14 0 -19 -2 -12 -5z"/>
<path d="M3464 2292 c5 -8 -1 -12 -16 -13 -20 -1 -21 -2 -3 -6 11 -3 23 -10
27 -17 5 -6 8 -2 8 11 0 12 -5 25 -12 29 -7 4 -8 3 -4 -4z"/>
<path d="M3504 2285 c-3 -8 1 -24 10 -37 9 -12 16 -17 16 -11 0 7 -5 15 -11
19 -6 3 -9 15 -6 25 6 22 -1 26 -9 4z"/>
<path d="M3604 2292 c5 -8 -1 -12 -16 -13 -20 -1 -21 -2 -3 -6 11 -3 23 -10
27 -17 5 -6 8 -2 8 11 0 12 -5 25 -12 29 -7 4 -8 3 -4 -4z"/>
<path d="M4150 2281 c0 -11 4 -22 9 -25 4 -3 6 6 3 19 -5 30 -12 33 -12 6z"/>
<path d="M4185 2275 c0 -14 3 -25 8 -25 4 0 7 11 7 25 0 14 -3 25 -7 25 -5 0
-8 -11 -8 -25z"/>
<path d="M4305 2275 c0 -19 5 -25 20 -24 11 0 14 3 8 6 -7 2 -13 13 -13 24 0
10 -3 19 -7 19 -5 0 -8 -11 -8 -25z"/>
<path d="M4363 2284 c-3 -8 -2 -19 3 -24 5 -5 9 1 9 16 0 28 -3 30 -12 8z"/>
<path d="M4464 2292 c5 -8 -1 -12 -16 -13 -20 -1 -21 -2 -3 -6 11 -3 23 -10
27 -17 5 -6 8 -2 8 11 0 12 -5 25 -12 29 -7 4 -8 3 -4 -4z"/>
<path d="M1928 2283 c6 -2 18 -2 25 0 6 3 1 5 -13 5 -14 0 -19 -2 -12 -5z"/>
<path d="M1360 2276 c0 -2 7 -7 16 -10 8 -3 12 -2 9 4 -6 10 -25 14 -25 6z"/>
<path d="M4240 2276 c0 -2 7 -7 16 -10 8 -3 12 -2 9 4 -6 10 -25 14 -25 6z"/>
<path d="M1429 2068 c-4 -33 -2 -38 16 -38 12 0 16 3 8 8 -6 4 -13 21 -15 37
-3 29 -4 29 -9 -7z"/>
<path d="M1700 2067 c0 -20 4 -37 8 -37 9 0 7 58 -2 67 -3 4 -6 -10 -6 -30z"/>
<path d="M2079 2068 c-4 -33 -2 -38 16 -38 12 0 16 3 8 8 -6 4 -13 21 -15 37
-3 29 -4 29 -9 -7z"/>
<path d="M2630 2065 c0 -19 4 -35 10 -35 5 0 7 7 4 15 -4 9 0 15 9 15 9 0 18
-8 20 -17 3 -10 5 0 5 22 0 22 -2 32 -5 23 -2 -10 -11 -18 -20 -18 -9 0 -13 6
-9 15 3 8 1 15 -4 15 -6 0 -10 -16 -10 -35z"/>
<path d="M1120 2045 c0 -19 2 -35 4 -35 2 0 6 16 8 35 2 19 0 35 -4 35 -4 0
-8 -16 -8 -35z"/>
<path d="M1270 2045 c0 -19 2 -35 4 -35 2 0 6 16 8 35 2 19 0 35 -4 35 -4 0
-8 -16 -8 -35z"/>
<path d="M1340 2061 c0 -11 4 -22 9 -25 4 -3 6 6 3 19 -5 30 -12 33 -12 6z"/>
<path d="M1375 2055 c0 -14 3 -25 8 -25 4 0 7 11 7 25 0 14 -3 25 -7 25 -5 0
-8 -11 -8 -25z"/>
<path d="M1514 2072 c5 -8 -1 -12 -16 -13 -20 -1 -21 -2 -3 -6 11 -3 23 -10
27 -17 5 -6 8 -2 8 11 0 12 -5 25 -12 29 -7 4 -8 3 -4 -4z"/>
<path d="M1558 2058 c-4 -24 -2 -28 16 -28 13 0 16 3 10 8 -7 4 -14 16 -16 27
-3 17 -5 15 -10 -7z"/>
<path d="M1778 2058 c-4 -24 -2 -28 16 -28 13 0 16 3 10 8 -7 4 -14 16 -16 27
-3 17 -5 15 -10 -7z"/>
<path d="M1874 2072 c5 -8 -1 -12 -16 -13 -20 -1 -21 -2 -3 -6 11 -3 23 -10
27 -17 5 -6 8 -2 8 11 0 12 -5 25 -12 29 -7 4 -8 3 -4 -4z"/>
<path d="M2005 2055 c0 -19 5 -25 20 -24 11 0 14 3 8 6 -7 2 -13 13 -13 24 0
10 -3 19 -7 19 -5 0 -8 -11 -8 -25z"/>
<path d="M2133 2064 c-3 -8 0 -21 7 -27 10 -9 11 -9 6 0 -4 7 3 13 16 16 l23
4 -23 2 c-13 0 -20 6 -17 11 3 6 4 10 0 10 -3 0 -8 -7 -12 -16z"/>
<path d="M2215 2055 c0 -19 5 -25 20 -24 11 0 14 3 8 6 -7 2 -13 13 -13 24 0
10 -3 19 -7 19 -5 0 -8 -11 -8 -25z"/>
<path d="M2278 2058 c-4 -24 -2 -28 16 -28 13 0 16 3 10 8 -7 4 -14 16 -16 27
-3 17 -5 15 -10 -7z"/>
<path d="M2384 2072 c5 -8 -1 -12 -16 -13 -20 -1 -21 -2 -3 -6 11 -3 23 -10
27 -17 5 -6 8 -2 8 11 0 12 -5 25 -12 29 -7 4 -8 3 -4 -4z"/>
<path d="M2725 2055 c0 -19 5 -25 20 -24 11 0 14 3 8 6 -7 2 -13 13 -13 24 0
10 -3 19 -7 19 -5 0 -8 -11 -8 -25z"/>
<path d="M2858 2073 c6 -2 18 -2 25 0 6 3 1 5 -13 5 -14 0 -19 -2 -12 -5z"/>
<path d="M2998 2058 c-4 -24 -2 -28 16 -28 13 0 16 3 10 8 -7 4 -14 16 -16 27
-3 17 -5 15 -10 -7z"/>
<path d="M3085 2055 c0 -19 5 -25 20 -24 11 0 14 3 8 6 -7 2 -13 13 -13 24 0
10 -3 19 -7 19 -5 0 -8 -11 -8 -25z"/>
<path d="M3174 2072 c5 -8 -1 -12 -16 -13 -20 -1 -21 -2 -3 -6 11 -3 23 -10
27 -17 5 -6 8 -2 8 11 0 12 -5 25 -12 29 -7 4 -8 3 -4 -4z"/>
<path d="M3283 2064 c-3 -8 0 -21 7 -27 10 -9 11 -9 6 0 -4 7 3 13 16 16 l23
4 -23 2 c-13 0 -20 6 -17 11 3 6 4 10 0 10 -3 0 -8 -7 -12 -16z"/>
<path d="M3433 2064 c-3 -8 -2 -19 3 -24 5 -5 9 1 9 16 0 28 -3 30 -12 8z"/>
<path d="M3508 2058 c-4 -24 -2 -28 16 -28 13 0 16 3 10 8 -7 4 -14 16 -16 27
-3 17 -5 15 -10 -7z"/>
<path d="M3585 2055 c0 -19 5 -25 20 -24 11 0 14 3 8 6 -7 2 -13 13 -13 24 0
10 -3 19 -7 19 -5 0 -8 -11 -8 -25z"/>
<path d="M3648 2073 c6 -2 18 -2 25 0 6 3 1 5 -13 5 -14 0 -19 -2 -12 -5z"/>
<path d="M3725 2055 c0 -19 5 -25 20 -24 11 0 14 3 8 6 -7 2 -13 13 -13 24 0
10 -3 19 -7 19 -5 0 -8 -11 -8 -25z"/>
<path d="M3793 2064 c-3 -8 -2 -19 3 -24 5 -5 9 1 9 16 0 28 -3 30 -12 8z"/>
<path d="M3894 2072 c5 -8 -1 -12 -16 -13 -20 -1 -21 -2 -3 -6 11 -3 23 -10
27 -17 5 -6 8 -2 8 11 0 12 -5 25 -12 29 -7 4 -8 3 -4 -4z"/>
<path d="M2508 2063 c6 -2 18 -2 25 0 6 3 1 5 -13 5 -14 0 -19 -2 -12 -5z"/>
<path d="M1930 2056 c0 -2 7 -7 16 -10 8 -3 12 -2 9 4 -6 10 -25 14 -25 6z"/>
<path d="M2800 2056 c0 -2 7 -7 16 -10 8 -3 12 -2 9 4 -6 10 -25 14 -25 6z"/>
<path d="M1135 1855 c0 -19 5 -35 10 -35 6 0 10 16 10 35 0 19 -4 35 -10 35
-5 0 -10 -16 -10 -35z"/>
<path d="M1388 1855 c-2 -19 0 -35 4 -35 4 0 8 16 8 35 0 19 -2 35 -4 35 -2 0
-6 -16 -8 -35z"/>
<path d="M2226 1882 c7 -4 14 -16 16 -27 3 -17 5 -15 10 8 4 23 2 27 -16 27
-13 0 -16 -3 -10 -8z"/>
<path d="M2865 1855 c0 -19 5 -35 10 -35 6 0 10 16 10 35 0 19 -4 35 -10 35
-5 0 -10 -16 -10 -35z"/>
<path d="M2935 1855 c0 -19 5 -35 10 -35 6 0 10 16 10 35 0 19 -4 35 -10 35
-5 0 -10 -16 -10 -35z"/>
<path d="M3146 1881 c-4 -5 3 -7 14 -4 23 6 26 13 6 13 -8 0 -17 -4 -20 -9z"/>
<path d="M3645 1855 c0 -32 3 -35 28 -35 15 0 27 4 27 9 0 5 -10 7 -21 4 -19
-5 -21 -3 -17 25 3 19 0 32 -6 32 -6 0 -11 -16 -11 -35z"/>
<path d="M1444 1862 c5 -8 -1 -12 -16 -13 -20 -1 -21 -2 -3 -6 11 -3 23 -10
27 -17 5 -6 8 -2 8 11 0 12 -5 25 -12 29 -7 4 -8 3 -4 -4z"/>
<path d="M1488 1848 c-4 -24 -2 -28 16 -28 13 0 16 3 10 8 -7 4 -14 16 -16 27
-3 17 -5 15 -10 -7z"/>
<path d="M1586 1839 c3 -44 11 -46 16 -5 2 22 0 36 -7 36 -6 0 -10 -14 -9 -31z"/>
<path d="M1630 1851 c0 -11 4 -22 9 -25 4 -3 6 6 3 19 -5 30 -12 33 -12 6z"/>
<path d="M1665 1845 c0 -14 3 -25 8 -25 4 0 7 11 7 25 0 14 -3 25 -7 25 -5 0
-8 -11 -8 -25z"/>
<path d="M1703 1854 c-3 -8 0 -21 7 -27 10 -9 11 -9 6 0 -4 7 3 13 16 16 l23
4 -23 2 c-13 0 -20 6 -17 11 3 6 4 10 0 10 -3 0 -8 -7 -12 -16z"/>
<path d="M1855 1845 c0 -19 5 -25 20 -24 11 0 14 3 8 6 -7 2 -13 13 -13 24 0
10 -3 19 -7 19 -5 0 -8 -11 -8 -25z"/>
<path d="M1912 1845 c0 -16 2 -22 5 -12 2 9 2 23 0 30 -3 6 -5 -1 -5 -18z"/>
<path d="M1948 1843 c5 -21 7 -23 10 -9 2 10 0 22 -6 28 -6 6 -7 0 -4 -19z"/>
<path d="M2005 1845 c0 -19 5 -25 20 -24 11 0 14 3 8 6 -7 2 -13 13 -13 24 0
10 -3 19 -7 19 -5 0 -8 -11 -8 -25z"/>
<path d="M2304 1862 c5 -8 -1 -12 -16 -13 -20 -1 -21 -2 -3 -6 11 -3 23 -10
27 -17 5 -6 8 -2 8 11 0 12 -5 25 -12 29 -7 4 -8 3 -4 -4z"/>
<path d="M2352 1845 c0 -16 2 -22 5 -12 2 9 2 23 0 30 -3 6 -5 -1 -5 -18z"/>
<path d="M2388 1843 c5 -21 7 -23 10 -9 2 10 0 22 -6 28 -6 6 -7 0 -4 -19z"/>
<path d="M2454 1862 c5 -8 -1 -12 -16 -13 -20 -1 -21 -2 -3 -6 11 -3 23 -10
27 -17 5 -6 8 -2 8 11 0 12 -5 25 -12 29 -7 4 -8 3 -4 -4z"/>
<path d="M2505 1845 c0 -19 5 -25 20 -24 11 0 14 3 8 6 -7 2 -13 13 -13 24 0
10 -3 19 -7 19 -5 0 -8 -11 -8 -25z"/>
<path d="M2562 1845 c0 -16 2 -22 5 -12 2 9 2 23 0 30 -3 6 -5 -1 -5 -18z"/>
<path d="M2598 1843 c5 -21 7 -23 10 -9 2 10 0 22 -6 28 -6 6 -7 0 -4 -19z"/>
<path d="M2664 1862 c5 -8 -1 -12 -16 -13 -20 -1 -21 -2 -3 -6 11 -3 23 -10
27 -17 5 -6 8 -2 8 11 0 12 -5 25 -12 29 -7 4 -8 3 -4 -4z"/>
<path d="M3358 1863 c6 -2 18 -2 25 0 6 3 1 5 -13 5 -14 0 -19 -2 -12 -5z"/>
<path d="M3464 1862 c5 -8 -1 -12 -16 -13 -20 -1 -21 -2 -3 -6 11 -3 23 -10
27 -17 5 -6 8 -2 8 11 0 12 -5 25 -12 29 -7 4 -8 3 -4 -4z"/>
<path d="M3710 1851 c0 -11 4 -22 9 -25 4 -3 6 6 3 19 -5 30 -12 33 -12 6z"/>
<path d="M3745 1845 c0 -14 3 -25 8 -25 4 0 7 11 7 25 0 14 -3 25 -7 25 -5 0
-8 -11 -8 -25z"/>
<path d="M3824 1862 c5 -8 -1 -12 -16 -13 -20 -1 -21 -2 -3 -6 11 -3 23 -10
27 -17 5 -6 8 -2 8 11 0 12 -5 25 -12 29 -7 4 -8 3 -4 -4z"/>
<path d="M3862 1845 c0 -16 2 -22 5 -12 2 9 2 23 0 30 -3 6 -5 -1 -5 -18z"/>
<path d="M3898 1843 c5 -21 7 -23 10 -9 2 10 0 22 -6 28 -6 6 -7 0 -4 -19z"/>
<path d="M3964 1862 c5 -8 -1 -12 -16 -13 -20 -1 -21 -2 -3 -6 11 -3 23 -10
27 -17 5 -6 8 -2 8 11 0 12 -5 25 -12 29 -7 4 -8 3 -4 -4z"/>
<path d="M1790 1846 c0 -2 7 -7 16 -10 8 -3 12 -2 9 4 -6 10 -25 14 -25 6z"/>
<path d="M2200 1841 c0 -6 4 -13 10 -16 6 -3 7 1 4 9 -7 18 -14 21 -14 7z"/>
<path d="M3300 1846 c0 -2 7 -7 16 -10 8 -3 12 -2 9 4 -6 10 -25 14 -25 6z"/>
<path d="M2075 1829 c-4 -6 -5 -12 -2 -15 2 -3 7 2 10 11 7 17 1 20 -8 4z"/>
<path d="M3515 1829 c-4 -6 -5 -12 -2 -15 2 -3 7 2 10 11 7 17 1 20 -8 4z"/>
<path d="M1135 1635 c0 -19 5 -35 10 -35 6 0 10 16 10 35 0 19 -4 35 -10 35
-5 0 -10 -16 -10 -35z"/>
<path d="M1205 1635 c0 -19 5 -35 10 -35 6 0 10 16 10 35 0 19 -4 35 -10 35
-5 0 -10 -16 -10 -35z"/>
<path d="M1285 1635 c0 -19 5 -35 10 -35 6 0 10 16 10 35 0 19 -4 35 -10 35
-5 0 -10 -16 -10 -35z"/>
<path d="M1528 1635 c-2 -19 0 -35 4 -35 4 0 8 16 8 35 0 19 -2 35 -4 35 -2 0
-6 -16 -8 -35z"/>
<path d="M1703 1635 c0 -22 2 -30 4 -17 2 12 2 30 0 40 -3 9 -5 -1 -4 -23z"/>
<path d="M2060 1636 c0 -20 4 -36 10 -36 5 0 7 7 4 15 -8 20 5 19 29 -2 14
-13 18 -13 11 -3 -5 8 -9 24 -9 35 0 13 -8 21 -22 23 -20 3 -23 -1 -23 -32z
m40 14 c0 -5 -7 -10 -15 -10 -8 0 -15 5 -15 10 0 6 7 10 15 10 8 0 15 -4 15
-10z"/>
<path d="M2439 1638 c-4 -33 -2 -38 16 -38 12 0 16 3 8 8 -6 4 -13 21 -15 37
-3 29 -4 29 -9 -7z"/>
<path d="M1550 1631 c0 -11 4 -22 9 -25 4 -3 6 6 3 19 -5 30 -12 33 -12 6z"/>
<path d="M1585 1625 c0 -14 3 -25 8 -25 4 0 7 11 7 25 0 14 -3 25 -7 25 -5 0
-8 -11 -8 -25z"/>
<path d="M1632 1625 c0 -16 2 -22 5 -12 2 9 2 23 0 30 -3 6 -5 -1 -5 -18z"/>
<path d="M1668 1623 c5 -21 7 -23 10 -9 2 10 0 22 -6 28 -6 6 -7 0 -4 -19z"/>
<path d="M1738 1623 c5 -21 7 -23 10 -9 2 10 0 22 -6 28 -6 6 -7 0 -4 -19z"/>
<path d="M1853 1643 c9 -2 15 -9 12 -14 -10 -15 1 -10 15 6 11 13 8 15 -16 14
-17 -1 -22 -3 -11 -6z"/>
<path d="M2164 1642 c5 -8 -1 -12 -16 -13 -20 -1 -21 -2 -3 -6 11 -3 23 -10
27 -17 5 -6 8 -2 8 11 0 12 -5 25 -12 29 -7 4 -8 3 -4 -4z"/>
<path d="M2236 1619 c3 -44 11 -46 16 -5 2 22 0 36 -7 36 -6 0 -10 -14 -9 -31z"/>
<path d="M2270 1631 c0 -11 4 -22 9 -25 4 -3 6 6 3 19 -5 30 -12 33 -12 6z"/>
<path d="M2305 1625 c0 -14 3 -25 8 -25 4 0 7 11 7 25 0 14 -3 25 -7 25 -5 0
-8 -11 -8 -25z"/>
<path d="M2353 1634 c-3 -8 0 -21 7 -27 10 -9 11 -9 6 0 -4 7 3 13 16 16 l23
4 -23 2 c-13 0 -20 6 -17 11 3 6 4 10 0 10 -3 0 -8 -7 -12 -16z"/>
<path d="M1925 1609 c-4 -6 -5 -12 -2 -15 2 -3 7 2 10 11 7 17 1 20 -8 4z"/>
<path d="M1858 1603 c6 -2 18 -2 25 0 6 3 1 5 -13 5 -14 0 -19 -2 -12 -5z"/>
<path d="M1506 868 c-13 -14 -15 -23 -8 -26 15 -5 16 -32 2 -32 -5 0 -10 -5
-10 -11 0 -6 25 -10 68 -8 38 1 73 0 78 -3 16 -8 124 3 124 13 0 5 -4 9 -9 9
-5 0 -11 14 -14 30 -4 17 -11 30 -16 30 -15 0 -22 -33 -9 -42 10 -6 10 -10 -2
-18 -12 -8 -16 -3 -18 25 -2 22 -8 35 -18 35 -8 0 -14 -4 -14 -8 0 -13 -48
-33 -54 -23 -3 5 -25 12 -48 16 -24 4 -37 9 -30 12 13 5 17 23 4 23 -4 0 -16
-10 -26 -22z m46 -60 c-13 -13 -26 8 -17 30 6 16 7 16 17 -1 7 -13 7 -22 0
-29z m43 13 c3 -5 1 -12 -5 -16 -5 -3 -10 1 -10 9 0 18 6 21 15 7z m69 -12
c-3 -5 -10 -7 -15 -3 -5 3 -7 10 -3 15 3 5 10 7 15 3 5 -3 7 -10 3 -15z"/>
<path d="M2589 862 c-8 -10 -18 -25 -21 -34 -8 -21 -48 -31 -48 -12 0 8 7 14
15 14 23 0 18 17 -7 23 -30 8 -39 0 -31 -31 8 -36 15 -39 71 -36 26 1 70 3 98
5 28 1 56 -1 63 -5 6 -4 18 -2 26 4 17 15 36 5 28 -15 -3 -10 1 -15 14 -15 28
0 43 20 43 56 l0 33 -61 -3 c-44 -1 -65 -7 -74 -19 -18 -25 -25 -21 -25 13 0
23 -4 30 -20 30 -11 0 -20 -4 -20 -10 0 -5 5 -10 10 -10 16 0 12 -37 -5 -44
-18 -7 -38 35 -29 59 8 21 -8 19 -27 -3z m155 -53 c-3 -5 -10 -7 -15 -3 -5 3
-7 10 -3 15 3 5 10 7 15 3 5 -3 7 -10 3 -15z m66 11 c0 -5 -5 -10 -11 -10 -5
0 -7 5 -4 10 3 6 8 10 11 10 2 0 4 -4 4 -10z"/>
<path d="M3447 860 c-9 -11 -17 -26 -17 -33 0 -6 -5 -4 -11 5 -13 24 -115 22
-132 -2 -17 -24 -47 -33 -47 -15 0 8 7 15 15 15 23 0 18 17 -7 24 -29 7 -38
-3 -31 -36 6 -31 27 -42 53 -28 10 6 21 7 23 2 5 -7 185 -7 193 1 3 2 0 16 -5
31 -6 14 -8 33 -5 41 9 21 -9 19 -29 -5z m-70 -52 c-3 -8 -6 -5 -6 6 -1 11 2
17 5 13 3 -3 4 -12 1 -19z"/>
<path d="M3076 853 c-4 -9 -1 -20 6 -25 10 -6 10 -10 -2 -18 -12 -8 -17 -4
-25 15 -14 38 -50 30 -50 -10 l0 -30 60 4 c63 3 76 8 59 19 -6 4 -14 19 -18
35 -7 30 -21 35 -30 10z"/>
<path d="M3586 853 c-4 -9 -1 -20 6 -24 10 -6 8 -12 -7 -24 -19 -14 -17 -15
26 -13 25 1 50 -2 57 -6 6 -4 20 -3 30 3 11 6 24 6 35 -1 22 -12 47 6 47 33 0
22 -36 35 -55 19 -11 -9 -15 -9 -15 -1 0 19 -49 12 -62 -9 -17 -27 -24 -25
-31 10 -7 33 -21 39 -31 13z m112 -32 c11 -7 10 -10 -3 -15 -20 -7 -38 1 -30
15 7 11 16 11 33 0z m56 -12 c-3 -5 -10 -7 -15 -3 -5 3 -7 10 -3 15 3 5 10 7
15 3 5 -3 7 -10 3 -15z"/>
<path d="M3497 853 c-9 -14 4 -61 19 -67 18 -7 44 3 44 16 0 6 -9 8 -20 5 -13
-3 -20 0 -20 9 0 8 7 14 15 14 8 0 15 5 15 10 0 6 -4 10 -9 10 -5 0 -16 3 -24
6 -8 3 -17 2 -20 -3z"/>
<path d="M1782 838 c-18 -18 -15 -36 8 -48 13 -7 26 -7 38 -1 13 7 22 7 29 0
16 -16 53 -1 53 20 0 30 -28 47 -51 33 -11 -7 -19 -8 -19 -2 0 14 -43 13 -58
-2z m46 -17 c11 -7 10 -10 -3 -15 -20 -7 -38 1 -30 15 7 11 16 11 33 0z"/>
<path d="M1985 805 c0 -36 3 -45 18 -45 19 0 24 19 5 21 -7 1 -2 4 12 8 14 5
32 4 41 0 14 -7 59 -2 59 7 0 1 -4 14 -10 28 -11 30 -50 36 -50 9 -1 -17 -1
-17 -11 0 -6 9 -22 17 -37 17 -25 0 -27 -3 -27 -45z m45 15 c0 -5 -4 -10 -10
-10 -5 0 -10 5 -10 10 0 6 5 10 10 10 6 0 10 -4 10 -10z"/>
<path d="M2144 834 c4 -9 1 -23 -5 -30 -9 -11 -6 -14 20 -14 17 0 31 5 31 10
0 6 -5 10 -11 10 -5 0 -7 5 -4 10 4 6 11 8 16 5 5 -4 9 1 9 9 0 11 -10 16 -31
16 -25 0 -30 -3 -25 -16z"/>
<path d="M2206 823 c-8 -30 8 -46 39 -37 27 9 27 8 16 38 -14 35 -47 35 -55
-1z"/>
<path d="M2352 838 c-17 -17 -15 -36 6 -46 17 -9 109 -8 118 0 2 3 0 17 -5 32
-11 28 -51 37 -51 11 0 -17 -36 -39 -50 -30 -17 10 0 26 21 20 13 -4 19 -2 19
9 0 19 -40 22 -58 4z"/>
<path d="M2862 838 c-18 -18 -15 -36 9 -48 24 -13 49 2 49 30 0 27 -37 39 -58
18z m32 -29 c-3 -5 -10 -7 -15 -3 -5 3 -7 10 -3 15 3 5 10 7 15 3 5 -3 7 -10
3 -15z"/>
<path d="M3144 836 c-15 -38 13 -67 44 -48 20 13 4 62 -19 62 -11 0 -22 -6
-25 -14z"/>
<path d="M3806 842 c-3 -6 -1 -14 5 -17 15 -10 25 3 12 16 -7 7 -13 7 -17 1z"/>
<path d="M3805 801 c-6 -11 9 -23 19 -14 9 9 7 23 -3 23 -6 0 -12 -4 -16 -9z"/>
<path d="M830 630 c-10 -6 -11 -10 -2 -10 6 0 12 -11 12 -24 0 -13 -6 -27 -12
-29 -7 -3 1 -6 17 -6 17 0 25 3 18 7 -6 4 -13 22 -15 39 -2 26 -6 31 -18 23z"/>
<path d="M1634 603 c1 -45 29 -64 55 -38 19 18 3 51 -23 49 -9 -1 -16 4 -16
12 0 8 -4 14 -9 14 -4 0 -8 -17 -7 -37z m51 -12 c7 -12 -12 -24 -25 -16 -11 7
-4 25 10 25 5 0 11 -4 15 -9z"/>
<path d="M2000 630 c0 -5 5 -10 10 -10 15 0 12 -47 -2 -53 -7 -3 1 -5 17 -5
17 0 24 2 18 5 -7 2 -13 20 -13 39 0 24 -5 34 -15 34 -8 0 -15 -4 -15 -10z"/>
<path d="M2834 623 c4 -10 4 -14 0 -11 -4 4 -15 3 -25 -3 -40 -21 -10 -66 34
-50 14 6 28 6 33 1 5 -5 19 -7 30 -4 16 4 20 12 16 29 -5 27 -23 37 -43 24
-10 -6 -8 -9 11 -10 21 -1 22 -2 5 -6 -11 -3 -26 -10 -32 -15 -10 -8 -13 -2
-13 26 0 20 -5 36 -11 36 -6 0 -8 -7 -5 -17z m6 -38 c0 -8 -7 -15 -15 -15 -8
0 -15 7 -15 15 0 8 7 15 15 15 8 0 15 -7 15 -15z"/>
<path d="M3224 603 c1 -45 29 -64 55 -38 19 18 3 51 -23 49 -9 -1 -16 4 -16
12 0 8 -4 14 -9 14 -4 0 -8 -17 -7 -37z m51 -12 c7 -12 -12 -24 -25 -16 -11 7
-4 25 10 25 5 0 11 -4 15 -9z"/>
<path d="M3660 630 c0 -5 7 -10 16 -10 12 0 14 -7 9 -32 -5 -24 -4 -30 4 -23
6 6 14 25 17 43 6 30 4 32 -20 32 -14 0 -26 -4 -26 -10z"/>
<path d="M3737 634 c-12 -13 -7 -72 6 -77 24 -9 39 9 35 44 -3 32 -24 49 -41
33z m33 -18 c0 -11 -19 -15 -25 -6 -3 5 1 10 9 10 9 0 16 -2 16 -4z m0 -36 c0
-5 -7 -10 -16 -10 -8 0 -12 5 -9 10 3 6 10 10 16 10 5 0 9 -4 9 -10z"/>
<path d="M3807 633 c-14 -13 -6 -21 16 -16 l22 6 -22 -25 c-29 -31 -29 -38 2
-38 14 0 25 4 25 10 0 5 -8 7 -17 3 -16 -6 -16 -4 1 15 10 12 16 28 13 37 -7
15 -28 20 -40 8z"/>
<path d="M3957 634 c-12 -13 -7 -72 6 -77 24 -9 39 9 35 44 -3 32 -24 49 -41
33z m33 -39 c0 -26 -14 -33 -25 -15 -9 14 1 40 15 40 5 0 10 -11 10 -25z"/>
<path d="M4027 634 c-12 -13 -7 -72 6 -77 24 -9 39 9 35 44 -3 32 -24 49 -41
33z m33 -39 c0 -26 -14 -33 -25 -15 -9 14 1 40 15 40 5 0 10 -11 10 -25z"/>
<path d="M4094 626 c-7 -19 14 -48 29 -39 6 3 7 1 3 -5 -4 -7 -15 -12 -24 -12
-13 0 -14 -2 -3 -12 19 -19 53 25 42 55 -10 27 -39 34 -47 13z m36 -16 c0 -5
-4 -10 -10 -10 -5 0 -10 5 -10 10 0 6 5 10 10 10 6 0 10 -4 10 -10z"/>
<path d="M4167 633 c-14 -13 -6 -21 16 -16 l22 6 -22 -25 c-29 -31 -29 -38 2
-38 14 0 25 4 25 10 0 5 -8 7 -17 3 -16 -6 -16 -4 1 15 10 12 16 28 13 37 -7
15 -28 20 -40 8z"/>
<path d="M995 611 c-12 -39 20 -70 54 -51 10 5 22 5 27 0 14 -13 79 3 79 19 0
8 6 16 14 19 10 3 12 -1 8 -17 -3 -13 0 -21 8 -21 10 0 11 8 6 28 -4 15 -13
27 -19 26 -37 -3 -40 -5 -35 -24 3 -11 0 -20 -6 -20 -6 0 -11 9 -11 19 0 22
-21 33 -41 20 -10 -6 -8 -9 11 -10 18 0 13 -4 -20 -15 -58 -18 -60 -18 -60 5
0 23 22 40 28 23 5 -17 22 -15 22 3 0 23 -57 20 -65 -4z"/>
<path d="M1208 618 c-13 -38 22 -82 46 -58 7 7 5 10 -7 10 -22 0 -22 27 1 33
16 4 16 5 0 6 -10 0 -18 6 -18 11 0 14 -18 12 -22 -2z"/>
<path d="M2653 595 c11 -37 31 -46 40 -17 2 9 8 25 12 35 5 12 2 17 -10 17 -9
0 -13 -4 -10 -10 3 -5 1 -18 -4 -27 -10 -17 -11 -16 -12 2 -1 11 -1 23 0 28 0
4 -5 7 -13 7 -12 0 -12 -6 -3 -35z"/>
<path d="M1286 605 c-27 -28 10 -69 40 -44 20 16 17 37 -5 49 -15 7 -23 6 -35
-5z m34 -20 c0 -8 -7 -15 -15 -15 -8 0 -15 7 -15 15 0 8 7 15 15 15 8 0 15 -7
15 -15z"/>
<path d="M1439 609 c-10 -6 -8 -9 11 -10 23 -1 21 -2 -19 -15 -24 -8 10 -34
35 -28 16 4 20 11 16 29 -5 27 -23 37 -43 24z"/>
<path d="M1514 612 c-16 -11 -14 -50 3 -56 21 -9 33 2 33 29 0 24 -20 38 -36
27z m23 -38 c-3 -3 -12 -4 -19 -1 -8 3 -5 6 6 6 11 1 17 -2 13 -5z"/>
<path d="M1799 609 c-10 -6 -8 -9 11 -10 23 -1 21 -2 -19 -15 -24 -8 10 -34
35 -28 16 4 20 11 16 29 -5 27 -23 37 -43 24z"/>
<path d="M1874 612 c-16 -11 -14 -50 3 -56 21 -9 33 2 33 29 0 24 -20 38 -36
27z m23 -38 c-3 -3 -12 -4 -19 -1 -8 3 -5 6 6 6 11 1 17 -2 13 -5z"/>
<path d="M2087 609 c-36 -21 0 -68 40 -52 15 6 13 9 -12 14 l-30 7 28 1 c31 1
36 16 9 30 -11 6 -24 6 -35 0z m30 -15 c-3 -3 -12 -4 -19 -1 -8 3 -5 6 6 6 11
1 17 -2 13 -5z"/>
<path d="M2299 609 c-10 -6 -8 -9 11 -10 23 -1 21 -2 -19 -15 -24 -8 10 -34
35 -28 16 4 20 11 16 29 -5 27 -23 37 -43 24z"/>
<path d="M2374 612 c-16 -11 -14 -50 3 -56 21 -9 33 2 33 29 0 24 -20 38 -36
27z m23 -38 c-3 -3 -12 -4 -19 -1 -8 3 -5 6 6 6 11 1 17 -2 13 -5z"/>
<path d="M3017 609 c-36 -21 0 -68 40 -52 15 6 13 9 -12 14 l-30 7 28 1 c31 1
36 16 9 30 -11 6 -24 6 -35 0z m30 -15 c-3 -3 -12 -4 -19 -1 -8 3 -5 6 6 6 11
1 17 -2 13 -5z"/>
<path d="M3166 605 c-27 -28 10 -69 40 -44 20 16 17 37 -5 49 -15 7 -23 6 -35
-5z m34 -20 c0 -8 -7 -15 -15 -15 -8 0 -15 7 -15 15 0 8 7 15 15 15 8 0 15 -7
15 -15z"/>
<path d="M3379 609 c-10 -6 -8 -9 11 -10 23 -1 21 -2 -19 -15 -24 -8 10 -34
35 -28 16 4 20 11 16 29 -5 27 -23 37 -43 24z"/>
<path d="M1365 585 c0 -20 5 -25 25 -24 17 1 19 3 8 6 -25 6 -22 22 5 33 20 8
20 9 -8 9 -26 1 -30 -3 -30 -24z"/>
<path d="M1725 585 c0 -20 5 -25 25 -24 17 1 19 3 8 6 -25 6 -22 22 5 33 20 8
20 9 -8 9 -26 1 -30 -3 -30 -24z"/>
<path d="M1938 603 c6 -2 12 -11 12 -18 0 -7 -6 -16 -12 -18 -7 -3 1 -5 17 -5
17 0 24 2 18 5 -7 2 -13 13 -13 24 0 12 -7 19 -17 18 -11 0 -13 -3 -5 -6z"/>
<path d="M2158 603 c6 -2 12 -11 12 -18 0 -7 -6 -16 -12 -18 -7 -3 1 -5 17 -5
17 0 24 2 18 5 -7 2 -13 13 -13 24 0 12 -7 19 -17 18 -11 0 -13 -3 -5 -6z"/>
<path d="M2225 585 c0 -20 5 -25 25 -24 17 1 19 3 8 6 -25 6 -22 22 5 33 20 8
20 9 -8 9 -26 1 -30 -3 -30 -24z"/>
<path d="M2520 600 c0 -5 7 -10 15 -10 8 0 15 5 15 10 0 6 -7 10 -15 10 -8 0
-15 -4 -15 -10z"/>
<path d="M2728 603 c6 -2 12 -11 12 -18 0 -7 -6 -16 -12 -18 -7 -3 1 -5 17 -5
17 0 24 2 18 5 -7 2 -13 13 -13 24 0 12 -7 19 -17 18 -11 0 -13 -3 -5 -6z"/>
<path d="M3305 585 c0 -20 5 -25 25 -24 17 1 19 3 8 6 -25 6 -22 22 5 33 20 8
20 9 -8 9 -26 1 -30 -3 -30 -24z"/>
<path d="M905 571 c-6 -11 9 -23 19 -14 9 9 7 23 -3 23 -6 0 -12 -4 -16 -9z"/>
<path d="M2525 571 c-6 -11 9 -23 19 -14 9 9 7 23 -3 23 -6 0 -12 -4 -16 -9z"/>
<path d="M3895 571 c-6 -11 9 -23 19 -14 9 9 7 23 -3 23 -6 0 -12 -4 -16 -9z"/>
<path d="M3357 410 c-9 -11 -17 -25 -17 -30 0 -13 -38 -32 -50 -25 -17 10 0
26 21 20 13 -5 19 -2 19 10 0 22 -49 16 -64 -8 -20 -32 13 -44 106 -40 88 5
101 9 78 23 -14 9 -7 14 13 11 4 0 7 6 7 14 0 10 -10 15 -31 15 -25 0 -29 -3
-24 -19 3 -11 1 -22 -5 -26 -13 -8 -32 39 -24 60 9 21 -9 19 -29 -5z"/>
<path d="M4220 390 c-12 -23 -20 -49 -18 -58 3 -11 14 1 31 35 15 29 23 54 17
58 -5 3 -19 -13 -30 -35z"/>
<path d="M960 410 c0 -5 5 -10 10 -10 6 0 10 -9 10 -20 0 -28 -28 -25 -42 5
-14 32 -59 36 -51 5 3 -11 0 -27 -7 -35 -10 -12 -9 -15 8 -15 11 0 23 6 25 13
4 10 6 10 6 0 1 -16 171 -19 171 -3 0 6 -4 10 -9 10 -5 0 -11 14 -14 30 -4 17
-11 30 -16 30 -15 0 -22 -33 -9 -42 10 -6 10 -10 -1 -17 -23 -15 -41 -1 -41
30 0 22 -5 29 -20 29 -11 0 -20 -4 -20 -10z"/>
<path d="M1328 409 c-10 -5 -18 -21 -18 -34 0 -13 8 -28 18 -33 21 -11 112 -3
112 9 0 5 -5 9 -11 9 -5 0 -7 5 -4 10 4 6 11 8 16 5 5 -4 9 1 9 9 0 11 -10 16
-31 16 -25 0 -29 -3 -24 -19 3 -11 1 -22 -5 -26 -6 -4 -10 7 -10 29 0 38 -17
46 -52 25z m22 -29 c-7 -5 -9 -14 -5 -21 6 -11 5 -11 -5 -2 -15 14 -5 47 11
37 8 -5 8 -9 -1 -14z"/>
<path d="M1616 403 c-4 -9 -1 -20 6 -25 10 -6 10 -10 -1 -17 -21 -13 -40 -3
-34 20 4 15 0 19 -20 19 -22 0 -26 -4 -25 -31 l1 -30 67 2 c37 1 71 0 76 -3
14 -8 124 3 124 13 0 5 -4 9 -10 9 -5 0 -10 14 -10 30 0 23 -4 30 -20 30 -11
0 -20 -4 -20 -10 0 -5 5 -10 10 -10 15 0 12 -37 -4 -43 -8 -3 -16 2 -19 14 -8
30 -37 36 -58 11 -22 -29 -25 -28 -32 8 -7 33 -21 39 -31 13z"/>
<path d="M2196 403 c-4 -9 -1 -20 6 -24 10 -6 8 -12 -7 -23 -19 -15 -18 -15
18 -16 20 0 37 5 37 10 0 6 -4 10 -9 10 -5 0 -11 14 -14 30 -7 33 -21 39 -31
13z"/>
<path d="M2766 403 c-4 -9 -1 -20 6 -25 10 -6 10 -10 -2 -18 -12 -7 -16 -4
-20 18 -4 21 -11 28 -36 30 -28 3 -30 1 -30 -32 l0 -35 91 -3 c110 -4 117 -2
113 31 -2 18 -10 27 -25 29 -13 2 -23 8 -23 13 0 5 -4 9 -10 9 -5 0 -7 -13 -3
-30 4 -23 2 -30 -9 -30 -9 0 -18 13 -21 30 -7 33 -21 39 -31 13z m104 -33 c0
-5 -4 -10 -10 -10 -5 0 -10 5 -10 10 0 6 5 10 10 10 6 0 10 -4 10 -10z"/>
<path d="M2910 410 c0 -5 5 -10 10 -10 16 0 11 -32 -7 -46 -16 -12 -7 -14 62
-14 44 1 89 -1 99 -2 13 -2 25 6 33 22 12 23 13 24 13 4 0 -26 24 -38 49 -24
12 6 22 5 28 -1 6 -6 21 -8 33 -4 26 8 24 42 -3 59 -15 9 -22 7 -35 -9 -23
-28 -52 -39 -52 -20 0 8 7 15 15 15 8 0 15 4 15 9 0 13 -42 22 -55 11 -6 -5
-21 -7 -32 -4 -15 4 -26 0 -35 -15 -17 -28 -24 -26 -31 9 -4 17 -11 30 -16 30
-15 0 -22 -33 -9 -42 10 -6 10 -10 -1 -17 -23 -15 -41 -1 -41 30 0 22 -5 29
-20 29 -11 0 -20 -4 -20 -10z m174 -51 c-3 -5 -10 -7 -15 -3 -5 3 -7 10 -3 15
3 5 10 7 15 3 5 -3 7 -10 3 -15z"/>
<path d="M3486 403 c-4 -9 -1 -20 6 -24 10 -6 8 -12 -7 -23 -19 -14 -17 -15
30 -17 54 -2 87 -1 92 5 2 2 -1 15 -6 30 -12 31 -46 35 -54 6 -8 -30 -24 -24
-30 10 -7 33 -21 39 -31 13z"/>
<path d="M3847 408 c-24 -13 -21 -55 3 -68 11 -6 25 -8 31 -5 5 4 46 6 90 6
46 0 79 3 79 9 0 6 16 10 35 10 19 0 35 5 35 10 0 6 -15 10 -34 10 -21 0 -36
6 -40 15 -3 9 -18 15 -36 15 -27 0 -30 -2 -24 -25 5 -19 2 -25 -11 -25 -12 0
-15 5 -10 20 4 13 1 22 -7 24 -33 10 -96 13 -111 4z m53 -23 c5 3 10 -1 10 -9
0 -11 -9 -16 -30 -16 -18 0 -30 5 -30 13 0 21 12 28 26 16 7 -6 18 -8 24 -4z"/>
<path d="M4134 408 c-4 -6 -2 -14 4 -16 15 -5 16 -32 2 -32 -5 0 -10 -4 -10
-10 0 -5 14 -10 32 -10 25 0 29 3 20 12 -7 7 -12 25 -12 40 0 29 -22 39 -36
16z"/>
<path d="M4270 406 c0 -8 7 -21 15 -30 20 -20 19 -25 -5 -19 -27 7 -26 -14 1
-22 30 -10 48 13 42 53 -4 26 -10 32 -29 32 -14 0 -24 -6 -24 -14z"/>
<path d="M4354 408 c-4 -6 -2 -14 4 -16 15 -5 16 -32 2 -32 -5 0 -10 -4 -10
-10 0 -6 26 -10 58 -10 l59 0 1 40 c2 36 0 40 -23 40 -16 0 -25 -6 -25 -16 0
-10 6 -14 15 -10 24 9 17 -10 -9 -27 -28 -19 -36 -13 -36 25 0 29 -22 39 -36
16z"/>
<path d="M4497 413 c-12 -11 -8 -43 6 -43 8 0 7 -3 -3 -10 -20 -12 0 -33 23
-24 34 13 33 84 -2 84 -10 0 -21 -3 -24 -7z"/>
<path d="M1964 374 c0 -34 1 -35 36 -33 19 2 40 0 45 -3 6 -3 36 -3 68 -1 45
4 57 9 57 22 0 24 -20 41 -48 41 -20 0 -22 -4 -16 -22 6 -22 6 -22 -14 2 -18
21 -24 23 -40 13 -16 -10 -21 -9 -26 2 -3 8 -18 15 -34 15 -25 0 -28 -3 -28
-36z m181 -3 c3 -5 1 -12 -5 -16 -5 -3 -10 1 -10 9 0 18 6 21 15 7z"/>
<path d="M2257 403 c-9 -15 5 -61 20 -67 8 -3 22 -2 32 4 12 6 22 5 28 -1 6
-6 21 -8 33 -4 26 8 24 42 -3 59 -15 9 -22 7 -35 -9 -23 -28 -52 -39 -52 -20
0 8 7 15 15 15 8 0 15 5 15 10 0 6 -4 10 -9 10 -5 0 -16 3 -24 6 -8 3 -17 2
-20 -3z"/>
<path d="M1103 369 c0 -29 2 -30 36 -28 20 2 42 0 49 -5 37 -22 70 27 36 55
-13 10 -19 10 -36 0 -15 -9 -23 -10 -31 -2 -6 6 -21 11 -32 11 -17 0 -22 -6
-22 -31z m42 2 c3 -5 1 -12 -5 -16 -5 -3 -10 1 -10 9 0 18 6 21 15 7z"/>
<path d="M1466 373 c-8 -30 8 -46 39 -37 27 9 27 8 16 38 -14 35 -47 35 -55
-1z"/>
<path d="M1832 388 c-26 -26 1 -65 38 -53 32 10 20 65 -15 65 -6 0 -16 -5 -23
-12z"/>
<path d="M2402 370 c1 -26 5 -30 30 -30 15 0 28 5 28 10 0 6 -4 10 -9 10 -5 0
-7 9 -4 20 4 16 0 20 -20 20 -22 0 -26 -4 -25 -30z"/>
<path d="M2540 370 c0 -5 16 -10 35 -10 19 0 35 5 35 10 0 6 -16 10 -35 10
-19 0 -35 -4 -35 -10z"/>
<path d="M3690 370 c0 -5 16 -10 35 -10 19 0 35 5 35 10 0 6 -16 10 -35 10
-19 0 -35 -4 -35 -10z"/>
</g>
</svg>
